<svg width="1363" height="167" viewBox="0 0 1363 167" fill="none" xmlns="http://www.w3.org/2000/svg">
<rect width="1363" height="167" rx="15" fill="#F0F0F0"/>
<path d="M0 15C0 6.71573 6.71573 0 15 0H37V167H15C6.71573 167 0 160.284 0 152V15Z" fill="#424241"/>
<path d="M100.906 50.9219L93.3945 48.2383V45.0859L103.602 49.375V51.6367L100.906 50.9219ZM93.3945 53.1719L100.918 50.4297L103.602 49.7852V52.0352L93.3945 56.3242V53.1719ZM118.543 51.918H114.195V49.1758H118.543C119.215 49.1758 119.762 49.0664 120.184 48.8477C120.605 48.6211 120.914 48.3086 121.109 47.9102C121.305 47.5117 121.402 47.0625 121.402 46.5625C121.402 46.0547 121.305 45.582 121.109 45.1445C120.914 44.707 120.605 44.3555 120.184 44.0898C119.762 43.8242 119.215 43.6914 118.543 43.6914H115.414V58H111.898V40.9375H118.543C119.879 40.9375 121.023 41.1797 121.977 41.6641C122.938 42.1406 123.672 42.8008 124.18 43.6445C124.688 44.4883 124.941 45.4531 124.941 46.5391C124.941 47.6406 124.688 48.5938 124.18 49.3984C123.672 50.2031 122.938 50.8242 121.977 51.2617C121.023 51.6992 119.879 51.918 118.543 51.918ZM133.859 55.1406V49.4922C133.859 49.0859 133.793 48.7383 133.66 48.4492C133.527 48.1523 133.32 47.9219 133.039 47.7578C132.766 47.5938 132.41 47.5117 131.973 47.5117C131.598 47.5117 131.273 47.5781 131 47.7109C130.727 47.8359 130.516 48.0195 130.367 48.2617C130.219 48.4961 130.145 48.7734 130.145 49.0938H126.77C126.77 48.5547 126.895 48.043 127.145 47.5586C127.395 47.0742 127.758 46.6484 128.234 46.2812C128.711 45.9062 129.277 45.6133 129.934 45.4023C130.598 45.1914 131.34 45.0859 132.16 45.0859C133.145 45.0859 134.02 45.25 134.785 45.5781C135.551 45.9062 136.152 46.3984 136.59 47.0547C137.035 47.7109 137.258 48.5312 137.258 49.5156V54.9414C137.258 55.6367 137.301 56.207 137.387 56.6523C137.473 57.0898 137.598 57.4727 137.762 57.8008V58H134.352C134.188 57.6562 134.062 57.2266 133.977 56.7109C133.898 56.1875 133.859 55.6641 133.859 55.1406ZM134.305 50.2773L134.328 52.1875H132.441C131.996 52.1875 131.609 52.2383 131.281 52.3398C130.953 52.4414 130.684 52.5859 130.473 52.7734C130.262 52.9531 130.105 53.1641 130.004 53.4062C129.91 53.6484 129.863 53.9141 129.863 54.2031C129.863 54.4922 129.93 54.7539 130.062 54.9883C130.195 55.2148 130.387 55.3945 130.637 55.5273C130.887 55.6523 131.18 55.7148 131.516 55.7148C132.023 55.7148 132.465 55.6133 132.84 55.4102C133.215 55.207 133.504 54.957 133.707 54.6602C133.918 54.3633 134.027 54.082 134.035 53.8164L134.926 55.2461C134.801 55.5664 134.629 55.8984 134.41 56.2422C134.199 56.5859 133.93 56.9102 133.602 57.2148C133.273 57.5117 132.879 57.7578 132.418 57.9531C131.957 58.1406 131.41 58.2344 130.777 58.2344C129.973 58.2344 129.242 58.0742 128.586 57.7539C127.938 57.4258 127.422 56.9766 127.039 56.4062C126.664 55.8281 126.477 55.1719 126.477 54.4375C126.477 53.7734 126.602 53.1836 126.852 52.668C127.102 52.1523 127.469 51.7188 127.953 51.3672C128.445 51.0078 129.059 50.7383 129.793 50.5586C130.527 50.3711 131.379 50.2773 132.348 50.2773H134.305ZM143.164 48.0273V58H139.789V45.3203H142.953L143.164 48.0273ZM142.672 51.2148H141.758C141.758 50.2773 141.879 49.4336 142.121 48.6836C142.363 47.9258 142.703 47.2812 143.141 46.75C143.578 46.2109 144.098 45.8008 144.699 45.5195C145.309 45.2305 145.988 45.0859 146.738 45.0859C147.332 45.0859 147.875 45.1719 148.367 45.3438C148.859 45.5156 149.281 45.7891 149.633 46.1641C149.992 46.5391 150.266 47.0352 150.453 47.6523C150.648 48.2695 150.746 49.0234 150.746 49.9141V58H147.348V49.9023C147.348 49.3398 147.27 48.9023 147.113 48.5898C146.957 48.2773 146.727 48.0586 146.422 47.9336C146.125 47.8008 145.758 47.7344 145.32 47.7344C144.867 47.7344 144.473 47.8242 144.137 48.0039C143.809 48.1836 143.535 48.4336 143.316 48.7539C143.105 49.0664 142.945 49.4336 142.836 49.8555C142.727 50.2773 142.672 50.7305 142.672 51.2148ZM159.523 45.3203V47.7109H152.141V45.3203H159.523ZM153.969 42.1914H157.344V54.1797C157.344 54.5469 157.391 54.8281 157.484 55.0234C157.586 55.2188 157.734 55.3555 157.93 55.4336C158.125 55.5039 158.371 55.5391 158.668 55.5391C158.879 55.5391 159.066 55.5312 159.23 55.5156C159.402 55.4922 159.547 55.4688 159.664 55.4453L159.676 57.9297C159.387 58.0234 159.074 58.0977 158.738 58.1523C158.402 58.207 158.031 58.2344 157.625 58.2344C156.883 58.2344 156.234 58.1133 155.68 57.8711C155.133 57.6211 154.711 57.2227 154.414 56.6758C154.117 56.1289 153.969 55.4102 153.969 54.5195V42.1914ZM164.82 48.0859V58H161.445V45.3203H164.621L164.82 48.0859ZM168.641 45.2383L168.582 48.3672C168.418 48.3438 168.219 48.3242 167.984 48.3086C167.758 48.2852 167.551 48.2734 167.363 48.2734C166.887 48.2734 166.473 48.3359 166.121 48.4609C165.777 48.5781 165.488 48.7539 165.254 48.9883C165.027 49.2227 164.855 49.5078 164.738 49.8438C164.629 50.1797 164.566 50.5625 164.551 50.9922L163.871 50.7812C163.871 49.9609 163.953 49.207 164.117 48.5195C164.281 47.8242 164.52 47.2188 164.832 46.7031C165.152 46.1875 165.543 45.7891 166.004 45.5078C166.465 45.2266 166.992 45.0859 167.586 45.0859C167.773 45.0859 167.965 45.1016 168.16 45.1328C168.355 45.1562 168.516 45.1914 168.641 45.2383ZM174.207 56.5703L177.57 45.3203H181.191L176.094 59.9102C175.984 60.2305 175.836 60.5742 175.648 60.9414C175.469 61.3086 175.223 61.6562 174.91 61.9844C174.605 62.3203 174.219 62.5938 173.75 62.8047C173.289 63.0156 172.723 63.1211 172.051 63.1211C171.73 63.1211 171.469 63.1016 171.266 63.0625C171.062 63.0234 170.82 62.9688 170.539 62.8984V60.4258C170.625 60.4258 170.715 60.4258 170.809 60.4258C170.902 60.4336 170.992 60.4375 171.078 60.4375C171.523 60.4375 171.887 60.3867 172.168 60.2852C172.449 60.1836 172.676 60.0273 172.848 59.8164C173.02 59.6133 173.156 59.3477 173.258 59.0195L174.207 56.5703ZM172.801 45.3203L175.555 54.5078L176.035 58.082L173.738 58.3281L169.18 45.3203H172.801ZM189.395 51.918H185.047V49.1758H189.395C190.066 49.1758 190.613 49.0664 191.035 48.8477C191.457 48.6211 191.766 48.3086 191.961 47.9102C192.156 47.5117 192.254 47.0625 192.254 46.5625C192.254 46.0547 192.156 45.582 191.961 45.1445C191.766 44.707 191.457 44.3555 191.035 44.0898C190.613 43.8242 190.066 43.6914 189.395 43.6914H186.266V58H182.75V40.9375H189.395C190.73 40.9375 191.875 41.1797 192.828 41.6641C193.789 42.1406 194.523 42.8008 195.031 43.6445C195.539 44.4883 195.793 45.4531 195.793 46.5391C195.793 47.6406 195.539 48.5938 195.031 49.3984C194.523 50.2031 193.789 50.8242 192.828 51.2617C191.875 51.6992 190.73 51.918 189.395 51.918ZM204.711 55.1406V49.4922C204.711 49.0859 204.645 48.7383 204.512 48.4492C204.379 48.1523 204.172 47.9219 203.891 47.7578C203.617 47.5938 203.262 47.5117 202.824 47.5117C202.449 47.5117 202.125 47.5781 201.852 47.7109C201.578 47.8359 201.367 48.0195 201.219 48.2617C201.07 48.4961 200.996 48.7734 200.996 49.0938H197.621C197.621 48.5547 197.746 48.043 197.996 47.5586C198.246 47.0742 198.609 46.6484 199.086 46.2812C199.562 45.9062 200.129 45.6133 200.785 45.4023C201.449 45.1914 202.191 45.0859 203.012 45.0859C203.996 45.0859 204.871 45.25 205.637 45.5781C206.402 45.9062 207.004 46.3984 207.441 47.0547C207.887 47.7109 208.109 48.5312 208.109 49.5156V54.9414C208.109 55.6367 208.152 56.207 208.238 56.6523C208.324 57.0898 208.449 57.4727 208.613 57.8008V58H205.203C205.039 57.6562 204.914 57.2266 204.828 56.7109C204.75 56.1875 204.711 55.6641 204.711 55.1406ZM205.156 50.2773L205.18 52.1875H203.293C202.848 52.1875 202.461 52.2383 202.133 52.3398C201.805 52.4414 201.535 52.5859 201.324 52.7734C201.113 52.9531 200.957 53.1641 200.855 53.4062C200.762 53.6484 200.715 53.9141 200.715 54.2031C200.715 54.4922 200.781 54.7539 200.914 54.9883C201.047 55.2148 201.238 55.3945 201.488 55.5273C201.738 55.6523 202.031 55.7148 202.367 55.7148C202.875 55.7148 203.316 55.6133 203.691 55.4102C204.066 55.207 204.355 54.957 204.559 54.6602C204.77 54.3633 204.879 54.082 204.887 53.8164L205.777 55.2461C205.652 55.5664 205.48 55.8984 205.262 56.2422C205.051 56.5859 204.781 56.9102 204.453 57.2148C204.125 57.5117 203.73 57.7578 203.27 57.9531C202.809 58.1406 202.262 58.2344 201.629 58.2344C200.824 58.2344 200.094 58.0742 199.438 57.7539C198.789 57.4258 198.273 56.9766 197.891 56.4062C197.516 55.8281 197.328 55.1719 197.328 54.4375C197.328 53.7734 197.453 53.1836 197.703 52.668C197.953 52.1523 198.32 51.7188 198.805 51.3672C199.297 51.0078 199.91 50.7383 200.645 50.5586C201.379 50.3711 202.23 50.2773 203.199 50.2773H205.156ZM214.273 40V58H210.887V40H214.273Z" fill="#888888"/>
<path d="M109.93 86.0078V118H102.217V86.0078H109.93ZM119.554 86.0078V91.9624H92.813V86.0078H119.554ZM132.012 118.439C130.079 118.439 128.35 118.139 126.827 117.539C125.303 116.923 124.014 116.081 122.959 115.012C121.919 113.942 121.121 112.712 120.564 111.32C120.022 109.929 119.751 108.457 119.751 106.904V106.069C119.751 104.326 119.993 102.714 120.477 101.235C120.96 99.7407 121.678 98.437 122.63 97.3237C123.582 96.2104 124.776 95.3462 126.211 94.731C127.647 94.1011 129.317 93.7861 131.221 93.7861C132.906 93.7861 134.415 94.0571 135.748 94.5991C137.081 95.1411 138.208 95.9175 139.131 96.9282C140.069 97.939 140.779 99.1621 141.263 100.598C141.761 102.033 142.01 103.645 142.01 105.432V108.442H122.586V103.806H134.781V103.234C134.795 102.443 134.656 101.77 134.363 101.213C134.085 100.656 133.675 100.231 133.133 99.9385C132.591 99.6455 131.932 99.499 131.155 99.499C130.35 99.499 129.683 99.6748 129.156 100.026C128.643 100.378 128.24 100.861 127.947 101.477C127.669 102.077 127.471 102.773 127.354 103.564C127.237 104.355 127.178 105.19 127.178 106.069V106.904C127.178 107.783 127.295 108.581 127.53 109.299C127.779 110.017 128.13 110.632 128.584 111.145C129.053 111.643 129.61 112.031 130.254 112.309C130.914 112.587 131.661 112.727 132.496 112.727C133.506 112.727 134.502 112.536 135.484 112.155C136.465 111.774 137.308 111.145 138.011 110.266L141.373 114.265C140.889 114.953 140.201 115.62 139.307 116.264C138.428 116.909 137.374 117.436 136.143 117.846C134.913 118.242 133.536 118.439 132.012 118.439ZM155.062 112.727C155.75 112.727 156.336 112.602 156.819 112.353C157.317 112.089 157.691 111.723 157.94 111.254C158.204 110.771 158.328 110.192 158.313 109.519H165.279C165.293 111.306 164.854 112.873 163.96 114.221C163.082 115.554 161.88 116.594 160.357 117.341C158.848 118.073 157.142 118.439 155.237 118.439C153.377 118.439 151.751 118.139 150.359 117.539C148.968 116.923 147.803 116.074 146.866 114.99C145.943 113.891 145.247 112.609 144.778 111.145C144.324 109.68 144.097 108.09 144.097 106.376V105.871C144.097 104.157 144.324 102.568 144.778 101.103C145.247 99.6235 145.943 98.3418 146.866 97.2578C147.803 96.1592 148.96 95.3096 150.337 94.709C151.729 94.0938 153.348 93.7861 155.193 93.7861C157.171 93.7861 158.914 94.1597 160.423 94.9067C161.946 95.6538 163.14 96.7378 164.004 98.1587C164.869 99.5796 165.293 101.301 165.279 103.322H158.313C158.328 102.604 158.218 101.96 157.984 101.389C157.75 100.817 157.383 100.363 156.885 100.026C156.402 99.6748 155.779 99.499 155.018 99.499C154.256 99.499 153.641 99.6675 153.172 100.004C152.703 100.341 152.344 100.81 152.095 101.411C151.861 101.997 151.7 102.67 151.612 103.432C151.539 104.194 151.502 105.007 151.502 105.871V106.376C151.502 107.255 151.539 108.083 151.612 108.859C151.7 109.621 151.868 110.295 152.117 110.881C152.366 111.452 152.725 111.906 153.194 112.243C153.663 112.565 154.285 112.727 155.062 112.727ZM175.694 84.25V118H168.289V84.25H175.694ZM174.815 105.3L173.079 105.344C173.079 103.674 173.284 102.136 173.694 100.729C174.104 99.3232 174.69 98.1001 175.452 97.0601C176.214 96.02 177.129 95.2144 178.199 94.6431C179.268 94.0718 180.455 93.7861 181.758 93.7861C182.93 93.7861 184 93.9546 184.966 94.2915C185.948 94.6284 186.79 95.1704 187.493 95.9175C188.211 96.6646 188.76 97.6387 189.141 98.8398C189.537 100.041 189.734 101.506 189.734 103.234V118H182.286V103.19C182.286 102.224 182.146 101.477 181.868 100.949C181.604 100.407 181.224 100.034 180.726 99.8286C180.228 99.6089 179.62 99.499 178.902 99.499C178.038 99.499 177.334 99.6455 176.792 99.9385C176.25 100.231 175.833 100.642 175.54 101.169C175.262 101.682 175.071 102.29 174.969 102.993C174.866 103.696 174.815 104.465 174.815 105.3ZM221.88 109.497C221.88 108.999 221.807 108.552 221.661 108.156C221.514 107.746 221.243 107.365 220.848 107.014C220.452 106.662 219.881 106.311 219.134 105.959C218.401 105.593 217.435 105.212 216.233 104.816C214.827 104.348 213.472 103.82 212.168 103.234C210.865 102.634 209.7 101.938 208.675 101.147C207.649 100.341 206.836 99.4038 206.236 98.3345C205.635 97.2505 205.335 95.9907 205.335 94.5552C205.335 93.1782 205.643 91.9404 206.258 90.8418C206.873 89.7285 207.73 88.7837 208.829 88.0073C209.942 87.2163 211.246 86.6157 212.74 86.2056C214.234 85.7808 215.867 85.5684 217.64 85.5684C219.983 85.5684 222.049 85.9785 223.836 86.7988C225.638 87.6045 227.044 88.7544 228.055 90.2485C229.08 91.728 229.593 93.4785 229.593 95.5H221.924C221.924 94.6943 221.756 93.9839 221.419 93.3687C221.097 92.7534 220.606 92.27 219.947 91.9185C219.288 91.5669 218.46 91.3911 217.464 91.3911C216.497 91.3911 215.684 91.5376 215.025 91.8306C214.366 92.1235 213.868 92.519 213.531 93.0171C213.194 93.5005 213.025 94.0352 213.025 94.6211C213.025 95.1045 213.157 95.5439 213.421 95.9395C213.699 96.3203 214.087 96.6792 214.585 97.0161C215.098 97.353 215.713 97.6753 216.431 97.9829C217.164 98.2905 217.984 98.5908 218.892 98.8838C220.591 99.4258 222.1 100.034 223.418 100.708C224.751 101.367 225.872 102.121 226.78 102.971C227.703 103.806 228.399 104.758 228.868 105.827C229.351 106.896 229.593 108.105 229.593 109.453C229.593 110.888 229.314 112.163 228.758 113.276C228.201 114.389 227.403 115.334 226.363 116.11C225.323 116.872 224.078 117.451 222.627 117.846C221.177 118.242 219.559 118.439 217.771 118.439C216.131 118.439 214.512 118.234 212.916 117.824C211.333 117.399 209.898 116.755 208.609 115.891C207.32 115.012 206.287 113.891 205.511 112.529C204.749 111.152 204.368 109.519 204.368 107.629H212.103C212.103 108.566 212.227 109.357 212.476 110.002C212.725 110.646 213.091 111.167 213.575 111.562C214.058 111.943 214.651 112.221 215.354 112.397C216.058 112.558 216.863 112.639 217.771 112.639C218.753 112.639 219.544 112.5 220.145 112.221C220.745 111.928 221.185 111.547 221.463 111.079C221.741 110.595 221.88 110.068 221.88 109.497ZM245.743 94.2256V99.3672H231.417V94.2256H245.743ZM234.427 88.3149H241.832V110.244C241.832 110.874 241.905 111.364 242.051 111.716C242.198 112.053 242.447 112.294 242.798 112.441C243.165 112.573 243.648 112.639 244.249 112.639C244.673 112.639 245.025 112.631 245.303 112.617C245.582 112.587 245.845 112.551 246.094 112.507V117.802C245.464 118.007 244.805 118.161 244.117 118.264C243.428 118.381 242.696 118.439 241.919 118.439C240.337 118.439 238.982 118.19 237.854 117.692C236.741 117.194 235.892 116.411 235.306 115.341C234.72 114.272 234.427 112.88 234.427 111.167V88.3149ZM261.036 112.023V102.224C261.036 101.55 260.94 100.971 260.75 100.488C260.56 100.004 260.259 99.6309 259.849 99.3672C259.439 99.0889 258.89 98.9497 258.201 98.9497C257.645 98.9497 257.168 99.0449 256.773 99.2354C256.377 99.4258 256.077 99.7114 255.872 100.092C255.667 100.473 255.564 100.957 255.564 101.542H248.16C248.16 100.444 248.401 99.4258 248.885 98.4883C249.383 97.5361 250.086 96.7085 250.994 96.0054C251.917 95.3022 253.016 94.7603 254.29 94.3794C255.579 93.9839 257.015 93.7861 258.597 93.7861C260.486 93.7861 262.171 94.1011 263.65 94.731C265.145 95.3608 266.324 96.3057 267.188 97.5654C268.052 98.8105 268.484 100.378 268.484 102.268V112.001C268.484 113.554 268.572 114.733 268.748 115.539C268.924 116.33 269.173 117.026 269.495 117.626V118H262.068C261.717 117.268 261.453 116.374 261.277 115.319C261.116 114.25 261.036 113.151 261.036 112.023ZM261.937 103.476L261.98 107.431H258.707C258.018 107.431 257.432 107.526 256.949 107.717C256.48 107.907 256.099 108.171 255.806 108.508C255.528 108.83 255.323 109.196 255.191 109.606C255.074 110.017 255.015 110.449 255.015 110.903C255.015 111.342 255.118 111.738 255.323 112.089C255.542 112.426 255.835 112.69 256.202 112.88C256.568 113.071 256.978 113.166 257.432 113.166C258.252 113.166 258.948 113.012 259.52 112.705C260.105 112.382 260.552 111.994 260.86 111.54C261.167 111.086 261.321 110.661 261.321 110.266L262.947 113.298C262.654 113.884 262.317 114.477 261.937 115.078C261.57 115.678 261.109 116.235 260.552 116.748C260.01 117.246 259.344 117.656 258.553 117.978C257.762 118.286 256.802 118.439 255.674 118.439C254.209 118.439 252.862 118.139 251.631 117.539C250.416 116.938 249.441 116.103 248.709 115.034C247.977 113.95 247.61 112.705 247.61 111.298C247.61 110.068 247.83 108.969 248.27 108.002C248.724 107.036 249.405 106.215 250.313 105.542C251.221 104.868 252.378 104.355 253.785 104.003C255.191 103.652 256.846 103.476 258.75 103.476H261.937ZM282.635 112.727C283.323 112.727 283.909 112.602 284.393 112.353C284.891 112.089 285.264 111.723 285.513 111.254C285.777 110.771 285.901 110.192 285.887 109.519H292.852C292.867 111.306 292.427 112.873 291.534 114.221C290.655 115.554 289.454 116.594 287.93 117.341C286.421 118.073 284.715 118.439 282.811 118.439C280.95 118.439 279.324 118.139 277.933 117.539C276.541 116.923 275.376 116.074 274.439 114.99C273.516 113.891 272.82 112.609 272.352 111.145C271.897 109.68 271.67 108.09 271.67 106.376V105.871C271.67 104.157 271.897 102.568 272.352 101.103C272.82 99.6235 273.516 98.3418 274.439 97.2578C275.376 96.1592 276.534 95.3096 277.911 94.709C279.302 94.0938 280.921 93.7861 282.767 93.7861C284.744 93.7861 286.487 94.1597 287.996 94.9067C289.52 95.6538 290.713 96.7378 291.578 98.1587C292.442 99.5796 292.867 101.301 292.852 103.322H285.887C285.901 102.604 285.792 101.96 285.557 101.389C285.323 100.817 284.957 100.363 284.458 100.026C283.975 99.6748 283.353 99.499 282.591 99.499C281.829 99.499 281.214 99.6675 280.745 100.004C280.276 100.341 279.917 100.81 279.668 101.411C279.434 101.997 279.273 102.67 279.185 103.432C279.112 104.194 279.075 105.007 279.075 105.871V106.376C279.075 107.255 279.112 108.083 279.185 108.859C279.273 109.621 279.441 110.295 279.69 110.881C279.939 111.452 280.298 111.906 280.767 112.243C281.236 112.565 281.858 112.727 282.635 112.727ZM303.487 84.228V118H296.082V84.228H303.487ZM318.692 94.2256L308.365 106.333L302.959 111.738L299.729 107.036L304.234 101.169L309.815 94.2256H318.692ZM310.76 118L304.41 107.167L309.881 103.278L319.241 118H310.76Z" fill="#424241"/>
<path d="M1363 15C1363 6.71573 1356.28 0 1348 0H1134V167H1348C1356.28 167 1363 160.284 1363 152V15Z" fill="#00AF54"/>
<path fill-rule="evenodd" clip-rule="evenodd" d="M1218.5 55C1218.37 55 1218.24 55.0527 1218.15 55.1464C1218.05 55.2402 1218 55.3674 1218 55.5V111.5C1218 111.633 1218.05 111.76 1218.15 111.854C1218.24 111.947 1218.37 112 1218.5 112H1278C1278.13 112 1278.26 111.947 1278.35 111.854C1278.45 111.76 1278.5 111.633 1278.5 111.5V66C1278.5 65.8674 1278.45 65.7402 1278.35 65.6464C1278.26 65.5527 1278.13 65.5 1278 65.5H1248.25C1247.36 65.5 1246.52 65.1045 1245.95 64.4206L1238.09 55H1218.5ZM1213.9 50.9038C1215.12 49.6848 1216.78 49 1218.5 49H1239.5C1240.39 49 1241.23 49.3955 1241.8 50.0794L1249.66 59.5H1278C1279.72 59.5 1281.38 60.1848 1282.6 61.4038C1283.82 62.6228 1284.5 64.2761 1284.5 66V111.5C1284.5 113.224 1283.82 114.877 1282.6 116.096C1281.38 117.315 1279.72 118 1278 118H1218.5C1216.78 118 1215.12 117.315 1213.9 116.096C1212.68 114.877 1212 113.224 1212 111.5V55.5C1212 53.7761 1212.68 52.1228 1213.9 50.9038Z" fill="white"/>
<path fill-rule="evenodd" clip-rule="evenodd" d="M1243.72 77.5251C1245.09 78.892 1245.09 81.108 1243.72 82.4749L1237.45 88.75L1243.72 95.0251C1245.09 96.392 1245.09 98.608 1243.72 99.9749C1242.36 101.342 1240.14 101.342 1238.78 99.9749L1230.03 91.2249C1228.66 89.858 1228.66 87.642 1230.03 86.2751L1238.78 77.5251C1240.14 76.1583 1242.36 76.1583 1243.72 77.5251Z" fill="white"/>
<path fill-rule="evenodd" clip-rule="evenodd" d="M1252.03 99.9749C1250.66 98.608 1250.66 96.392 1252.03 95.0251L1258.3 88.75L1252.03 82.4749C1250.66 81.108 1250.66 78.892 1252.03 77.5251C1253.39 76.1583 1255.61 76.1583 1256.97 77.5251L1265.72 86.2751C1267.09 87.642 1267.09 89.858 1265.72 91.2249L1256.97 99.9749C1255.61 101.342 1253.39 101.342 1252.03 99.9749Z" fill="white"/>
</svg>
