<svg width="1363" height="167" viewBox="0 0 1363 167" fill="none" xmlns="http://www.w3.org/2000/svg">
<rect width="1363" height="167" rx="15" fill="#F0F0F0"/>
<path d="M0 15C0 6.71573 6.71573 0 15 0H37V167H15C6.71573 167 0 160.284 0 152V15Z" fill="#424241"/>
<path d="M100.906 50.9219L93.3945 48.2383V45.0859L103.602 49.375V51.6367L100.906 50.9219ZM93.3945 53.1719L100.918 50.4297L103.602 49.7852V52.0352L93.3945 56.3242V53.1719ZM118.543 51.918H114.195V49.1758H118.543C119.215 49.1758 119.762 49.0664 120.184 48.8477C120.605 48.6211 120.914 48.3086 121.109 47.9102C121.305 47.5117 121.402 47.0625 121.402 46.5625C121.402 46.0547 121.305 45.582 121.109 45.1445C120.914 44.707 120.605 44.3555 120.184 44.0898C119.762 43.8242 119.215 43.6914 118.543 43.6914H115.414V58H111.898V40.9375H118.543C119.879 40.9375 121.023 41.1797 121.977 41.6641C122.938 42.1406 123.672 42.8008 124.18 43.6445C124.688 44.4883 124.941 45.4531 124.941 46.5391C124.941 47.6406 124.688 48.5938 124.18 49.3984C123.672 50.2031 122.938 50.8242 121.977 51.2617C121.023 51.6992 119.879 51.918 118.543 51.918ZM133.859 55.1406V49.4922C133.859 49.0859 133.793 48.7383 133.66 48.4492C133.527 48.1523 133.32 47.9219 133.039 47.7578C132.766 47.5938 132.41 47.5117 131.973 47.5117C131.598 47.5117 131.273 47.5781 131 47.7109C130.727 47.8359 130.516 48.0195 130.367 48.2617C130.219 48.4961 130.145 48.7734 130.145 49.0938H126.77C126.77 48.5547 126.895 48.043 127.145 47.5586C127.395 47.0742 127.758 46.6484 128.234 46.2812C128.711 45.9062 129.277 45.6133 129.934 45.4023C130.598 45.1914 131.34 45.0859 132.16 45.0859C133.145 45.0859 134.02 45.25 134.785 45.5781C135.551 45.9062 136.152 46.3984 136.59 47.0547C137.035 47.7109 137.258 48.5312 137.258 49.5156V54.9414C137.258 55.6367 137.301 56.207 137.387 56.6523C137.473 57.0898 137.598 57.4727 137.762 57.8008V58H134.352C134.188 57.6562 134.062 57.2266 133.977 56.7109C133.898 56.1875 133.859 55.6641 133.859 55.1406ZM134.305 50.2773L134.328 52.1875H132.441C131.996 52.1875 131.609 52.2383 131.281 52.3398C130.953 52.4414 130.684 52.5859 130.473 52.7734C130.262 52.9531 130.105 53.1641 130.004 53.4062C129.91 53.6484 129.863 53.9141 129.863 54.2031C129.863 54.4922 129.93 54.7539 130.062 54.9883C130.195 55.2148 130.387 55.3945 130.637 55.5273C130.887 55.6523 131.18 55.7148 131.516 55.7148C132.023 55.7148 132.465 55.6133 132.84 55.4102C133.215 55.207 133.504 54.957 133.707 54.6602C133.918 54.3633 134.027 54.082 134.035 53.8164L134.926 55.2461C134.801 55.5664 134.629 55.8984 134.41 56.2422C134.199 56.5859 133.93 56.9102 133.602 57.2148C133.273 57.5117 132.879 57.7578 132.418 57.9531C131.957 58.1406 131.41 58.2344 130.777 58.2344C129.973 58.2344 129.242 58.0742 128.586 57.7539C127.938 57.4258 127.422 56.9766 127.039 56.4062C126.664 55.8281 126.477 55.1719 126.477 54.4375C126.477 53.7734 126.602 53.1836 126.852 52.668C127.102 52.1523 127.469 51.7188 127.953 51.3672C128.445 51.0078 129.059 50.7383 129.793 50.5586C130.527 50.3711 131.379 50.2773 132.348 50.2773H134.305ZM143.164 48.0273V58H139.789V45.3203H142.953L143.164 48.0273ZM142.672 51.2148H141.758C141.758 50.2773 141.879 49.4336 142.121 48.6836C142.363 47.9258 142.703 47.2812 143.141 46.75C143.578 46.2109 144.098 45.8008 144.699 45.5195C145.309 45.2305 145.988 45.0859 146.738 45.0859C147.332 45.0859 147.875 45.1719 148.367 45.3438C148.859 45.5156 149.281 45.7891 149.633 46.1641C149.992 46.5391 150.266 47.0352 150.453 47.6523C150.648 48.2695 150.746 49.0234 150.746 49.9141V58H147.348V49.9023C147.348 49.3398 147.27 48.9023 147.113 48.5898C146.957 48.2773 146.727 48.0586 146.422 47.9336C146.125 47.8008 145.758 47.7344 145.32 47.7344C144.867 47.7344 144.473 47.8242 144.137 48.0039C143.809 48.1836 143.535 48.4336 143.316 48.7539C143.105 49.0664 142.945 49.4336 142.836 49.8555C142.727 50.2773 142.672 50.7305 142.672 51.2148ZM159.523 45.3203V47.7109H152.141V45.3203H159.523ZM153.969 42.1914H157.344V54.1797C157.344 54.5469 157.391 54.8281 157.484 55.0234C157.586 55.2188 157.734 55.3555 157.93 55.4336C158.125 55.5039 158.371 55.5391 158.668 55.5391C158.879 55.5391 159.066 55.5312 159.23 55.5156C159.402 55.4922 159.547 55.4688 159.664 55.4453L159.676 57.9297C159.387 58.0234 159.074 58.0977 158.738 58.1523C158.402 58.207 158.031 58.2344 157.625 58.2344C156.883 58.2344 156.234 58.1133 155.68 57.8711C155.133 57.6211 154.711 57.2227 154.414 56.6758C154.117 56.1289 153.969 55.4102 153.969 54.5195V42.1914ZM164.82 48.0859V58H161.445V45.3203H164.621L164.82 48.0859ZM168.641 45.2383L168.582 48.3672C168.418 48.3438 168.219 48.3242 167.984 48.3086C167.758 48.2852 167.551 48.2734 167.363 48.2734C166.887 48.2734 166.473 48.3359 166.121 48.4609C165.777 48.5781 165.488 48.7539 165.254 48.9883C165.027 49.2227 164.855 49.5078 164.738 49.8438C164.629 50.1797 164.566 50.5625 164.551 50.9922L163.871 50.7812C163.871 49.9609 163.953 49.207 164.117 48.5195C164.281 47.8242 164.52 47.2188 164.832 46.7031C165.152 46.1875 165.543 45.7891 166.004 45.5078C166.465 45.2266 166.992 45.0859 167.586 45.0859C167.773 45.0859 167.965 45.1016 168.16 45.1328C168.355 45.1562 168.516 45.1914 168.641 45.2383ZM174.207 56.5703L177.57 45.3203H181.191L176.094 59.9102C175.984 60.2305 175.836 60.5742 175.648 60.9414C175.469 61.3086 175.223 61.6562 174.91 61.9844C174.605 62.3203 174.219 62.5938 173.75 62.8047C173.289 63.0156 172.723 63.1211 172.051 63.1211C171.73 63.1211 171.469 63.1016 171.266 63.0625C171.062 63.0234 170.82 62.9688 170.539 62.8984V60.4258C170.625 60.4258 170.715 60.4258 170.809 60.4258C170.902 60.4336 170.992 60.4375 171.078 60.4375C171.523 60.4375 171.887 60.3867 172.168 60.2852C172.449 60.1836 172.676 60.0273 172.848 59.8164C173.02 59.6133 173.156 59.3477 173.258 59.0195L174.207 56.5703ZM172.801 45.3203L175.555 54.5078L176.035 58.082L173.738 58.3281L169.18 45.3203H172.801ZM189.395 51.918H185.047V49.1758H189.395C190.066 49.1758 190.613 49.0664 191.035 48.8477C191.457 48.6211 191.766 48.3086 191.961 47.9102C192.156 47.5117 192.254 47.0625 192.254 46.5625C192.254 46.0547 192.156 45.582 191.961 45.1445C191.766 44.707 191.457 44.3555 191.035 44.0898C190.613 43.8242 190.066 43.6914 189.395 43.6914H186.266V58H182.75V40.9375H189.395C190.73 40.9375 191.875 41.1797 192.828 41.6641C193.789 42.1406 194.523 42.8008 195.031 43.6445C195.539 44.4883 195.793 45.4531 195.793 46.5391C195.793 47.6406 195.539 48.5938 195.031 49.3984C194.523 50.2031 193.789 50.8242 192.828 51.2617C191.875 51.6992 190.73 51.918 189.395 51.918ZM204.711 55.1406V49.4922C204.711 49.0859 204.645 48.7383 204.512 48.4492C204.379 48.1523 204.172 47.9219 203.891 47.7578C203.617 47.5938 203.262 47.5117 202.824 47.5117C202.449 47.5117 202.125 47.5781 201.852 47.7109C201.578 47.8359 201.367 48.0195 201.219 48.2617C201.07 48.4961 200.996 48.7734 200.996 49.0938H197.621C197.621 48.5547 197.746 48.043 197.996 47.5586C198.246 47.0742 198.609 46.6484 199.086 46.2812C199.562 45.9062 200.129 45.6133 200.785 45.4023C201.449 45.1914 202.191 45.0859 203.012 45.0859C203.996 45.0859 204.871 45.25 205.637 45.5781C206.402 45.9062 207.004 46.3984 207.441 47.0547C207.887 47.7109 208.109 48.5312 208.109 49.5156V54.9414C208.109 55.6367 208.152 56.207 208.238 56.6523C208.324 57.0898 208.449 57.4727 208.613 57.8008V58H205.203C205.039 57.6562 204.914 57.2266 204.828 56.7109C204.75 56.1875 204.711 55.6641 204.711 55.1406ZM205.156 50.2773L205.18 52.1875H203.293C202.848 52.1875 202.461 52.2383 202.133 52.3398C201.805 52.4414 201.535 52.5859 201.324 52.7734C201.113 52.9531 200.957 53.1641 200.855 53.4062C200.762 53.6484 200.715 53.9141 200.715 54.2031C200.715 54.4922 200.781 54.7539 200.914 54.9883C201.047 55.2148 201.238 55.3945 201.488 55.5273C201.738 55.6523 202.031 55.7148 202.367 55.7148C202.875 55.7148 203.316 55.6133 203.691 55.4102C204.066 55.207 204.355 54.957 204.559 54.6602C204.77 54.3633 204.879 54.082 204.887 53.8164L205.777 55.2461C205.652 55.5664 205.48 55.8984 205.262 56.2422C205.051 56.5859 204.781 56.9102 204.453 57.2148C204.125 57.5117 203.73 57.7578 203.27 57.9531C202.809 58.1406 202.262 58.2344 201.629 58.2344C200.824 58.2344 200.094 58.0742 199.438 57.7539C198.789 57.4258 198.273 56.9766 197.891 56.4062C197.516 55.8281 197.328 55.1719 197.328 54.4375C197.328 53.7734 197.453 53.1836 197.703 52.668C197.953 52.1523 198.32 51.7188 198.805 51.3672C199.297 51.0078 199.91 50.7383 200.645 50.5586C201.379 50.3711 202.23 50.2773 203.199 50.2773H205.156ZM214.273 40V58H210.887V40H214.273Z" fill="#888888"/>
<path d="M101.822 115.1L108.194 86.0078H111.995L114.061 88.4907L107.271 118H103.074L101.822 115.1ZM100.13 86.0078L105.513 115.319L104.129 118H99.2729L92.4834 86.0078H100.13ZM117.554 115.166L122.894 86.0078H130.518L123.729 118H118.895L117.554 115.166ZM114.742 86.0078L121.268 115.275L119.949 118H115.752L108.809 88.4468L110.962 86.0078H114.742ZM141.021 94.2256V118H133.594V94.2256H141.021ZM133.155 88.0952C133.155 87.0405 133.536 86.1763 134.297 85.5024C135.059 84.8286 136.048 84.4917 137.264 84.4917C138.479 84.4917 139.468 84.8286 140.23 85.5024C140.992 86.1763 141.373 87.0405 141.373 88.0952C141.373 89.1499 140.992 90.0142 140.23 90.688C139.468 91.3618 138.479 91.6987 137.264 91.6987C136.048 91.6987 135.059 91.3618 134.297 90.688C133.536 90.0142 133.155 89.1499 133.155 88.0952ZM153.062 100.114V118H145.657V94.2256H152.579L153.062 100.114ZM160.093 94.0498L159.961 100.927C159.668 100.898 159.273 100.861 158.775 100.817C158.277 100.773 157.859 100.751 157.522 100.751C156.658 100.751 155.911 100.854 155.281 101.059C154.666 101.25 154.153 101.542 153.743 101.938C153.348 102.319 153.055 102.802 152.864 103.388C152.688 103.974 152.608 104.655 152.623 105.432L151.282 104.553C151.282 102.956 151.436 101.506 151.744 100.202C152.066 98.8838 152.52 97.7485 153.106 96.7964C153.692 95.8296 154.402 95.0898 155.237 94.5771C156.072 94.0498 157.01 93.7861 158.05 93.7861C158.416 93.7861 158.775 93.8081 159.126 93.8521C159.493 93.896 159.815 93.9619 160.093 94.0498ZM173.716 118.439C171.783 118.439 170.054 118.139 168.531 117.539C167.007 116.923 165.718 116.081 164.664 115.012C163.624 113.942 162.825 112.712 162.269 111.32C161.727 109.929 161.456 108.457 161.456 106.904V106.069C161.456 104.326 161.697 102.714 162.181 101.235C162.664 99.7407 163.382 98.437 164.334 97.3237C165.286 96.2104 166.48 95.3462 167.916 94.731C169.351 94.1011 171.021 93.7861 172.925 93.7861C174.61 93.7861 176.119 94.0571 177.452 94.5991C178.785 95.1411 179.913 95.9175 180.835 96.9282C181.773 97.939 182.483 99.1621 182.967 100.598C183.465 102.033 183.714 103.645 183.714 105.432V108.442H164.29V103.806H176.485V103.234C176.5 102.443 176.36 101.77 176.067 101.213C175.789 100.656 175.379 100.231 174.837 99.9385C174.295 99.6455 173.636 99.499 172.859 99.499C172.054 99.499 171.387 99.6748 170.86 100.026C170.347 100.378 169.944 100.861 169.651 101.477C169.373 102.077 169.175 102.773 169.058 103.564C168.941 104.355 168.882 105.19 168.882 106.069V106.904C168.882 107.783 169 108.581 169.234 109.299C169.483 110.017 169.834 110.632 170.289 111.145C170.757 111.643 171.314 112.031 171.958 112.309C172.618 112.587 173.365 112.727 174.2 112.727C175.21 112.727 176.207 112.536 177.188 112.155C178.169 111.774 179.012 111.145 179.715 110.266L183.077 114.265C182.593 114.953 181.905 115.62 181.011 116.264C180.132 116.909 179.078 117.436 177.847 117.846C176.617 118.242 175.24 118.439 173.716 118.439ZM195.799 118H188.35V92.292C188.35 90.4463 188.724 88.8936 189.471 87.6338C190.218 86.374 191.272 85.4219 192.635 84.7773C193.997 84.1182 195.608 83.7886 197.469 83.7886C198.113 83.7886 198.721 83.8325 199.292 83.9204C199.864 84.0083 200.42 84.1182 200.962 84.25L200.984 89.6992C200.721 89.626 200.45 89.5747 200.171 89.5454C199.893 89.5161 199.549 89.5015 199.139 89.5015C198.421 89.5015 197.813 89.6113 197.315 89.8311C196.817 90.0361 196.436 90.3511 196.172 90.7759C195.923 91.186 195.799 91.6914 195.799 92.292V118ZM200.413 94.2256V99.3672H184.922V94.2256H200.413ZM210.542 100.114V118H203.138V94.2256H210.059L210.542 100.114ZM217.574 94.0498L217.442 100.927C217.149 100.898 216.753 100.861 216.255 100.817C215.757 100.773 215.34 100.751 215.003 100.751C214.139 100.751 213.392 100.854 212.762 101.059C212.146 101.25 211.634 101.542 211.224 101.938C210.828 102.319 210.535 102.802 210.345 103.388C210.169 103.974 210.088 104.655 210.103 105.432L208.763 104.553C208.763 102.956 208.917 101.506 209.224 100.202C209.546 98.8838 210 97.7485 210.586 96.7964C211.172 95.8296 211.883 95.0898 212.718 94.5771C213.553 94.0498 214.49 93.7861 215.53 93.7861C215.896 93.7861 216.255 93.8081 216.607 93.8521C216.973 93.896 217.295 93.9619 217.574 94.0498ZM231.812 112.023V102.224C231.812 101.55 231.717 100.971 231.526 100.488C231.336 100.004 231.036 99.6309 230.625 99.3672C230.215 99.0889 229.666 98.9497 228.978 98.9497C228.421 98.9497 227.945 99.0449 227.549 99.2354C227.154 99.4258 226.854 99.7114 226.648 100.092C226.443 100.473 226.341 100.957 226.341 101.542H218.936C218.936 100.444 219.178 99.4258 219.661 98.4883C220.159 97.5361 220.862 96.7085 221.771 96.0054C222.693 95.3022 223.792 94.7603 225.066 94.3794C226.355 93.9839 227.791 93.7861 229.373 93.7861C231.263 93.7861 232.947 94.1011 234.427 94.731C235.921 95.3608 237.1 96.3057 237.964 97.5654C238.829 98.8105 239.261 100.378 239.261 102.268V112.001C239.261 113.554 239.349 114.733 239.524 115.539C239.7 116.33 239.949 117.026 240.271 117.626V118H232.845C232.493 117.268 232.229 116.374 232.054 115.319C231.893 114.25 231.812 113.151 231.812 112.023ZM232.713 103.476L232.757 107.431H229.483C228.794 107.431 228.208 107.526 227.725 107.717C227.256 107.907 226.875 108.171 226.583 108.508C226.304 108.83 226.099 109.196 225.967 109.606C225.85 110.017 225.792 110.449 225.792 110.903C225.792 111.342 225.894 111.738 226.099 112.089C226.319 112.426 226.612 112.69 226.978 112.88C227.344 113.071 227.754 113.166 228.208 113.166C229.029 113.166 229.725 113.012 230.296 112.705C230.882 112.382 231.329 111.994 231.636 111.54C231.944 111.086 232.098 110.661 232.098 110.266L233.724 113.298C233.431 113.884 233.094 114.477 232.713 115.078C232.347 115.678 231.885 116.235 231.329 116.748C230.787 117.246 230.12 117.656 229.329 117.978C228.538 118.286 227.579 118.439 226.451 118.439C224.986 118.439 223.638 118.139 222.408 117.539C221.192 116.938 220.218 116.103 219.485 115.034C218.753 113.95 218.387 112.705 218.387 111.298C218.387 110.068 218.606 108.969 219.046 108.002C219.5 107.036 220.181 106.215 221.089 105.542C221.998 104.868 223.155 104.355 224.561 104.003C225.967 103.652 227.623 103.476 229.527 103.476H232.713ZM250.84 99.2573V118H243.436V94.2256H250.379L250.84 99.2573ZM249.939 105.3L248.248 105.344C248.248 103.674 248.445 102.136 248.841 100.729C249.236 99.3232 249.822 98.1001 250.599 97.0601C251.375 96.02 252.327 95.2144 253.455 94.6431C254.598 94.0718 255.916 93.7861 257.41 93.7861C258.45 93.7861 259.395 93.9473 260.245 94.2695C261.094 94.5771 261.827 95.0679 262.442 95.7417C263.057 96.4009 263.526 97.2651 263.848 98.3345C264.185 99.3892 264.354 100.656 264.354 102.136V118H256.949V103.081C256.949 102.07 256.832 101.308 256.597 100.795C256.377 100.283 256.055 99.9385 255.63 99.7627C255.206 99.5869 254.686 99.499 254.07 99.499C253.426 99.499 252.847 99.6455 252.334 99.9385C251.822 100.231 251.382 100.642 251.016 101.169C250.665 101.682 250.394 102.29 250.203 102.993C250.027 103.696 249.939 104.465 249.939 105.3ZM263.519 105.3L261.453 105.344C261.453 103.674 261.636 102.136 262.002 100.729C262.383 99.3232 262.947 98.1001 263.694 97.0601C264.456 96.02 265.401 95.2144 266.529 94.6431C267.657 94.0718 268.968 93.7861 270.462 93.7861C271.546 93.7861 272.542 93.9473 273.45 94.2695C274.358 94.5918 275.142 95.1118 275.801 95.8296C276.46 96.5474 276.973 97.4995 277.339 98.686C277.706 99.8579 277.889 101.308 277.889 103.037V118H270.462V103.037C270.462 102.055 270.345 101.315 270.11 100.817C269.891 100.305 269.568 99.9604 269.144 99.7847C268.719 99.5942 268.213 99.499 267.627 99.499C266.924 99.499 266.316 99.6455 265.804 99.9385C265.291 100.231 264.859 100.642 264.507 101.169C264.17 101.682 263.921 102.29 263.76 102.993C263.599 103.696 263.519 104.465 263.519 105.3ZM293.643 118.439C291.709 118.439 289.981 118.139 288.458 117.539C286.934 116.923 285.645 116.081 284.59 115.012C283.55 113.942 282.752 112.712 282.195 111.32C281.653 109.929 281.382 108.457 281.382 106.904V106.069C281.382 104.326 281.624 102.714 282.107 101.235C282.591 99.7407 283.309 98.437 284.261 97.3237C285.213 96.2104 286.407 95.3462 287.842 94.731C289.278 94.1011 290.948 93.7861 292.852 93.7861C294.537 93.7861 296.045 94.0571 297.378 94.5991C298.711 95.1411 299.839 95.9175 300.762 96.9282C301.7 97.939 302.41 99.1621 302.894 100.598C303.392 102.033 303.641 103.645 303.641 105.432V108.442H284.217V103.806H296.412V103.234C296.426 102.443 296.287 101.77 295.994 101.213C295.716 100.656 295.306 100.231 294.764 99.9385C294.222 99.6455 293.562 99.499 292.786 99.499C291.98 99.499 291.314 99.6748 290.787 100.026C290.274 100.378 289.871 100.861 289.578 101.477C289.3 102.077 289.102 102.773 288.985 103.564C288.868 104.355 288.809 105.19 288.809 106.069V106.904C288.809 107.783 288.926 108.581 289.161 109.299C289.41 110.017 289.761 110.632 290.215 111.145C290.684 111.643 291.241 112.031 291.885 112.309C292.544 112.587 293.292 112.727 294.126 112.727C295.137 112.727 296.133 112.536 297.115 112.155C298.096 111.774 298.938 111.145 299.642 110.266L303.003 114.265C302.52 114.953 301.832 115.62 300.938 116.264C300.059 116.909 299.004 117.436 297.774 117.846C296.543 118.242 295.167 118.439 293.643 118.439ZM319.109 111.32C319.109 110.91 318.97 110.559 318.692 110.266C318.428 109.958 317.959 109.68 317.286 109.431C316.612 109.167 315.667 108.903 314.451 108.64C313.294 108.391 312.203 108.061 311.177 107.651C310.167 107.241 309.28 106.743 308.519 106.157C307.757 105.571 307.156 104.875 306.717 104.069C306.292 103.264 306.08 102.341 306.08 101.301C306.08 100.29 306.292 99.3379 306.717 98.4443C307.156 97.5361 307.793 96.7378 308.628 96.0493C309.478 95.3462 310.511 94.7969 311.727 94.4014C312.942 93.9912 314.327 93.7861 315.879 93.7861C318.018 93.7861 319.864 94.1157 321.417 94.7749C322.969 95.4194 324.163 96.3276 324.998 97.4995C325.848 98.6567 326.272 99.9971 326.272 101.521H318.868C318.868 100.92 318.765 100.407 318.56 99.9824C318.37 99.5576 318.055 99.2354 317.615 99.0156C317.176 98.7812 316.59 98.6641 315.857 98.6641C315.345 98.6641 314.876 98.7593 314.451 98.9497C314.041 99.1401 313.711 99.4038 313.462 99.7407C313.213 100.078 313.089 100.473 313.089 100.927C313.089 101.25 313.162 101.542 313.309 101.806C313.47 102.055 313.711 102.29 314.034 102.509C314.356 102.714 314.766 102.905 315.264 103.081C315.762 103.242 316.363 103.388 317.066 103.52C318.663 103.813 320.157 104.23 321.548 104.772C322.94 105.314 324.068 106.083 324.932 107.08C325.811 108.076 326.25 109.416 326.25 111.101C326.25 112.155 326.009 113.129 325.525 114.023C325.042 114.902 324.346 115.678 323.438 116.352C322.53 117.011 321.438 117.524 320.164 117.89C318.89 118.256 317.454 118.439 315.857 118.439C313.587 118.439 311.668 118.037 310.101 117.231C308.533 116.411 307.347 115.385 306.541 114.155C305.75 112.91 305.354 111.65 305.354 110.375H312.254C312.283 111.108 312.459 111.708 312.781 112.177C313.118 112.646 313.565 112.99 314.122 113.21C314.678 113.43 315.323 113.54 316.055 113.54C316.729 113.54 317.286 113.444 317.725 113.254C318.179 113.063 318.523 112.807 318.758 112.485C318.992 112.148 319.109 111.76 319.109 111.32Z" fill="#424241"/>
<path d="M1363 15C1363 6.71573 1356.28 0 1348 0H1134V167H1348C1356.28 167 1363 160.284 1363 152V15Z" fill="#00AF54"/>
<path fill-rule="evenodd" clip-rule="evenodd" d="M1203 49C1203 47.8954 1203.9 47 1205 47H1292.5C1293.6 47 1294.5 47.8954 1294.5 49V118.996C1294.5 120.101 1293.6 120.996 1292.5 120.996H1205C1203.9 120.996 1203 120.101 1203 118.996V49ZM1207 51V55.4945H1290.5V51H1207ZM1290.5 59.4945H1235.44V116.996H1290.5V59.4945ZM1231.44 116.996V59.4945H1207V116.996H1231.44Z" fill="white"/>
<path fill-rule="evenodd" clip-rule="evenodd" d="M1209.97 64.8004C1209.97 63.6958 1210.87 62.8004 1211.97 62.8004H1225.97C1227.08 62.8004 1227.97 63.6958 1227.97 64.8004V84.1956C1227.97 85.3001 1227.08 86.1956 1225.97 86.1956H1211.97C1210.87 86.1956 1209.97 85.3001 1209.97 84.1956V64.8004ZM1213.97 66.8004V82.1956H1223.97V66.8004H1213.97ZM1239.58 65.6964C1239.58 64.5918 1240.47 63.6964 1241.58 63.6964H1284.5C1285.61 63.6964 1286.5 64.5918 1286.5 65.6964V111.905C1286.5 113.01 1285.61 113.905 1284.5 113.905H1241.58C1240.47 113.905 1239.58 113.01 1239.58 111.905V65.6964ZM1243.58 67.6964V109.905H1282.5V67.6964H1243.58ZM1209.81 95.9363C1209.81 94.8317 1210.71 93.9363 1211.81 93.9363H1220.73C1221.84 93.9363 1222.73 94.8317 1222.73 95.9363C1222.73 97.0409 1221.84 97.9363 1220.73 97.9363H1211.81C1210.71 97.9363 1209.81 97.0409 1209.81 95.9363ZM1209.81 102.936C1209.81 101.832 1210.71 100.936 1211.81 100.936H1226.35C1227.46 100.936 1228.35 101.832 1228.35 102.936C1228.35 104.041 1227.46 104.936 1226.35 104.936H1211.81C1210.71 104.936 1209.81 104.041 1209.81 102.936ZM1209.81 109.936C1209.81 108.832 1210.71 107.936 1211.81 107.936H1220.73C1221.84 107.936 1222.73 108.832 1222.73 109.936C1222.73 111.041 1221.84 111.936 1220.73 111.936H1211.81C1210.71 111.936 1209.81 111.041 1209.81 109.936Z" fill="white"/>
</svg>
