<svg width="1363" height="167" viewBox="0 0 1363 167" fill="none" xmlns="http://www.w3.org/2000/svg">
<rect width="1363" height="167" rx="15" fill="#F0F0F0"/>
<path d="M0 15C0 6.71573 6.71573 0 15 0H37V167H15C6.71573 167 0 160.284 0 152V15Z" fill="#424241"/>
<path d="M100.906 50.9219L93.3945 48.2383V45.0859L103.602 49.375V51.6367L100.906 50.9219ZM93.3945 53.1719L100.918 50.4297L103.602 49.7852V52.0352L93.3945 56.3242V53.1719ZM118.543 51.918H114.195V49.1758H118.543C119.215 49.1758 119.762 49.0664 120.184 48.8477C120.605 48.6211 120.914 48.3086 121.109 47.9102C121.305 47.5117 121.402 47.0625 121.402 46.5625C121.402 46.0547 121.305 45.582 121.109 45.1445C120.914 44.707 120.605 44.3555 120.184 44.0898C119.762 43.8242 119.215 43.6914 118.543 43.6914H115.414V58H111.898V40.9375H118.543C119.879 40.9375 121.023 41.1797 121.977 41.6641C122.938 42.1406 123.672 42.8008 124.18 43.6445C124.688 44.4883 124.941 45.4531 124.941 46.5391C124.941 47.6406 124.688 48.5938 124.18 49.3984C123.672 50.2031 122.938 50.8242 121.977 51.2617C121.023 51.6992 119.879 51.918 118.543 51.918ZM133.859 55.1406V49.4922C133.859 49.0859 133.793 48.7383 133.66 48.4492C133.527 48.1523 133.32 47.9219 133.039 47.7578C132.766 47.5938 132.41 47.5117 131.973 47.5117C131.598 47.5117 131.273 47.5781 131 47.7109C130.727 47.8359 130.516 48.0195 130.367 48.2617C130.219 48.4961 130.145 48.7734 130.145 49.0938H126.77C126.77 48.5547 126.895 48.043 127.145 47.5586C127.395 47.0742 127.758 46.6484 128.234 46.2812C128.711 45.9062 129.277 45.6133 129.934 45.4023C130.598 45.1914 131.34 45.0859 132.16 45.0859C133.145 45.0859 134.02 45.25 134.785 45.5781C135.551 45.9062 136.152 46.3984 136.59 47.0547C137.035 47.7109 137.258 48.5312 137.258 49.5156V54.9414C137.258 55.6367 137.301 56.207 137.387 56.6523C137.473 57.0898 137.598 57.4727 137.762 57.8008V58H134.352C134.188 57.6562 134.062 57.2266 133.977 56.7109C133.898 56.1875 133.859 55.6641 133.859 55.1406ZM134.305 50.2773L134.328 52.1875H132.441C131.996 52.1875 131.609 52.2383 131.281 52.3398C130.953 52.4414 130.684 52.5859 130.473 52.7734C130.262 52.9531 130.105 53.1641 130.004 53.4062C129.91 53.6484 129.863 53.9141 129.863 54.2031C129.863 54.4922 129.93 54.7539 130.062 54.9883C130.195 55.2148 130.387 55.3945 130.637 55.5273C130.887 55.6523 131.18 55.7148 131.516 55.7148C132.023 55.7148 132.465 55.6133 132.84 55.4102C133.215 55.207 133.504 54.957 133.707 54.6602C133.918 54.3633 134.027 54.082 134.035 53.8164L134.926 55.2461C134.801 55.5664 134.629 55.8984 134.41 56.2422C134.199 56.5859 133.93 56.9102 133.602 57.2148C133.273 57.5117 132.879 57.7578 132.418 57.9531C131.957 58.1406 131.41 58.2344 130.777 58.2344C129.973 58.2344 129.242 58.0742 128.586 57.7539C127.938 57.4258 127.422 56.9766 127.039 56.4062C126.664 55.8281 126.477 55.1719 126.477 54.4375C126.477 53.7734 126.602 53.1836 126.852 52.668C127.102 52.1523 127.469 51.7188 127.953 51.3672C128.445 51.0078 129.059 50.7383 129.793 50.5586C130.527 50.3711 131.379 50.2773 132.348 50.2773H134.305ZM143.164 48.0273V58H139.789V45.3203H142.953L143.164 48.0273ZM142.672 51.2148H141.758C141.758 50.2773 141.879 49.4336 142.121 48.6836C142.363 47.9258 142.703 47.2812 143.141 46.75C143.578 46.2109 144.098 45.8008 144.699 45.5195C145.309 45.2305 145.988 45.0859 146.738 45.0859C147.332 45.0859 147.875 45.1719 148.367 45.3438C148.859 45.5156 149.281 45.7891 149.633 46.1641C149.992 46.5391 150.266 47.0352 150.453 47.6523C150.648 48.2695 150.746 49.0234 150.746 49.9141V58H147.348V49.9023C147.348 49.3398 147.27 48.9023 147.113 48.5898C146.957 48.2773 146.727 48.0586 146.422 47.9336C146.125 47.8008 145.758 47.7344 145.32 47.7344C144.867 47.7344 144.473 47.8242 144.137 48.0039C143.809 48.1836 143.535 48.4336 143.316 48.7539C143.105 49.0664 142.945 49.4336 142.836 49.8555C142.727 50.2773 142.672 50.7305 142.672 51.2148ZM159.523 45.3203V47.7109H152.141V45.3203H159.523ZM153.969 42.1914H157.344V54.1797C157.344 54.5469 157.391 54.8281 157.484 55.0234C157.586 55.2188 157.734 55.3555 157.93 55.4336C158.125 55.5039 158.371 55.5391 158.668 55.5391C158.879 55.5391 159.066 55.5312 159.23 55.5156C159.402 55.4922 159.547 55.4688 159.664 55.4453L159.676 57.9297C159.387 58.0234 159.074 58.0977 158.738 58.1523C158.402 58.207 158.031 58.2344 157.625 58.2344C156.883 58.2344 156.234 58.1133 155.68 57.8711C155.133 57.6211 154.711 57.2227 154.414 56.6758C154.117 56.1289 153.969 55.4102 153.969 54.5195V42.1914ZM164.82 48.0859V58H161.445V45.3203H164.621L164.82 48.0859ZM168.641 45.2383L168.582 48.3672C168.418 48.3438 168.219 48.3242 167.984 48.3086C167.758 48.2852 167.551 48.2734 167.363 48.2734C166.887 48.2734 166.473 48.3359 166.121 48.4609C165.777 48.5781 165.488 48.7539 165.254 48.9883C165.027 49.2227 164.855 49.5078 164.738 49.8438C164.629 50.1797 164.566 50.5625 164.551 50.9922L163.871 50.7812C163.871 49.9609 163.953 49.207 164.117 48.5195C164.281 47.8242 164.52 47.2188 164.832 46.7031C165.152 46.1875 165.543 45.7891 166.004 45.5078C166.465 45.2266 166.992 45.0859 167.586 45.0859C167.773 45.0859 167.965 45.1016 168.16 45.1328C168.355 45.1562 168.516 45.1914 168.641 45.2383ZM174.207 56.5703L177.57 45.3203H181.191L176.094 59.9102C175.984 60.2305 175.836 60.5742 175.648 60.9414C175.469 61.3086 175.223 61.6562 174.91 61.9844C174.605 62.3203 174.219 62.5938 173.75 62.8047C173.289 63.0156 172.723 63.1211 172.051 63.1211C171.73 63.1211 171.469 63.1016 171.266 63.0625C171.062 63.0234 170.82 62.9688 170.539 62.8984V60.4258C170.625 60.4258 170.715 60.4258 170.809 60.4258C170.902 60.4336 170.992 60.4375 171.078 60.4375C171.523 60.4375 171.887 60.3867 172.168 60.2852C172.449 60.1836 172.676 60.0273 172.848 59.8164C173.02 59.6133 173.156 59.3477 173.258 59.0195L174.207 56.5703ZM172.801 45.3203L175.555 54.5078L176.035 58.082L173.738 58.3281L169.18 45.3203H172.801ZM189.395 51.918H185.047V49.1758H189.395C190.066 49.1758 190.613 49.0664 191.035 48.8477C191.457 48.6211 191.766 48.3086 191.961 47.9102C192.156 47.5117 192.254 47.0625 192.254 46.5625C192.254 46.0547 192.156 45.582 191.961 45.1445C191.766 44.707 191.457 44.3555 191.035 44.0898C190.613 43.8242 190.066 43.6914 189.395 43.6914H186.266V58H182.75V40.9375H189.395C190.73 40.9375 191.875 41.1797 192.828 41.6641C193.789 42.1406 194.523 42.8008 195.031 43.6445C195.539 44.4883 195.793 45.4531 195.793 46.5391C195.793 47.6406 195.539 48.5938 195.031 49.3984C194.523 50.2031 193.789 50.8242 192.828 51.2617C191.875 51.6992 190.73 51.918 189.395 51.918ZM204.711 55.1406V49.4922C204.711 49.0859 204.645 48.7383 204.512 48.4492C204.379 48.1523 204.172 47.9219 203.891 47.7578C203.617 47.5938 203.262 47.5117 202.824 47.5117C202.449 47.5117 202.125 47.5781 201.852 47.7109C201.578 47.8359 201.367 48.0195 201.219 48.2617C201.07 48.4961 200.996 48.7734 200.996 49.0938H197.621C197.621 48.5547 197.746 48.043 197.996 47.5586C198.246 47.0742 198.609 46.6484 199.086 46.2812C199.562 45.9062 200.129 45.6133 200.785 45.4023C201.449 45.1914 202.191 45.0859 203.012 45.0859C203.996 45.0859 204.871 45.25 205.637 45.5781C206.402 45.9062 207.004 46.3984 207.441 47.0547C207.887 47.7109 208.109 48.5312 208.109 49.5156V54.9414C208.109 55.6367 208.152 56.207 208.238 56.6523C208.324 57.0898 208.449 57.4727 208.613 57.8008V58H205.203C205.039 57.6562 204.914 57.2266 204.828 56.7109C204.75 56.1875 204.711 55.6641 204.711 55.1406ZM205.156 50.2773L205.18 52.1875H203.293C202.848 52.1875 202.461 52.2383 202.133 52.3398C201.805 52.4414 201.535 52.5859 201.324 52.7734C201.113 52.9531 200.957 53.1641 200.855 53.4062C200.762 53.6484 200.715 53.9141 200.715 54.2031C200.715 54.4922 200.781 54.7539 200.914 54.9883C201.047 55.2148 201.238 55.3945 201.488 55.5273C201.738 55.6523 202.031 55.7148 202.367 55.7148C202.875 55.7148 203.316 55.6133 203.691 55.4102C204.066 55.207 204.355 54.957 204.559 54.6602C204.77 54.3633 204.879 54.082 204.887 53.8164L205.777 55.2461C205.652 55.5664 205.48 55.8984 205.262 56.2422C205.051 56.5859 204.781 56.9102 204.453 57.2148C204.125 57.5117 203.73 57.7578 203.27 57.9531C202.809 58.1406 202.262 58.2344 201.629 58.2344C200.824 58.2344 200.094 58.0742 199.438 57.7539C198.789 57.4258 198.273 56.9766 197.891 56.4062C197.516 55.8281 197.328 55.1719 197.328 54.4375C197.328 53.7734 197.453 53.1836 197.703 52.668C197.953 52.1523 198.32 51.7188 198.805 51.3672C199.297 51.0078 199.91 50.7383 200.645 50.5586C201.379 50.3711 202.23 50.2773 203.199 50.2773H205.156ZM214.273 40V58H210.887V40H214.273Z" fill="#888888"/>
<path d="M115.994 98.708V104.641H99.5806V98.708H115.994ZM102.151 86.0078V118H94.439V86.0078H102.151ZM121.18 86.0078V118H113.489V86.0078H121.18ZM124.805 106.354V105.893C124.805 104.15 125.054 102.546 125.552 101.081C126.05 99.6016 126.783 98.3198 127.75 97.2358C128.716 96.1519 129.91 95.3096 131.331 94.709C132.752 94.0938 134.393 93.7861 136.253 93.7861C138.128 93.7861 139.776 94.0938 141.197 94.709C142.632 95.3096 143.833 96.1519 144.8 97.2358C145.767 98.3198 146.5 99.6016 146.998 101.081C147.496 102.546 147.745 104.15 147.745 105.893V106.354C147.745 108.083 147.496 109.687 146.998 111.167C146.5 112.631 145.767 113.913 144.8 115.012C143.833 116.096 142.64 116.938 141.219 117.539C139.798 118.139 138.157 118.439 136.297 118.439C134.437 118.439 132.789 118.139 131.353 117.539C129.917 116.938 128.716 116.096 127.75 115.012C126.783 113.913 126.05 112.631 125.552 111.167C125.054 109.687 124.805 108.083 124.805 106.354ZM132.21 105.893V106.354C132.21 107.248 132.276 108.083 132.408 108.859C132.54 109.636 132.759 110.317 133.067 110.903C133.375 111.474 133.792 111.921 134.319 112.243C134.847 112.565 135.506 112.727 136.297 112.727C137.073 112.727 137.718 112.565 138.23 112.243C138.758 111.921 139.175 111.474 139.483 110.903C139.791 110.317 140.01 109.636 140.142 108.859C140.274 108.083 140.34 107.248 140.34 106.354V105.893C140.34 105.029 140.274 104.216 140.142 103.454C140.01 102.678 139.791 101.997 139.483 101.411C139.175 100.81 138.758 100.341 138.23 100.004C137.703 99.6675 137.044 99.499 136.253 99.499C135.477 99.499 134.825 99.6675 134.297 100.004C133.785 100.341 133.375 100.81 133.067 101.411C132.759 101.997 132.54 102.678 132.408 103.454C132.276 104.216 132.21 105.029 132.21 105.893ZM158.27 110.925L162.664 94.2256H167.3L165.652 102.597L161.302 118H157.588L158.27 110.925ZM156.534 94.2256L159.258 110.793L159.566 118H155.062L149.437 94.2256H156.534ZM171.211 110.441L173.958 94.2256H181.055L175.474 118H170.97L171.211 110.441ZM167.828 94.2256L172.266 110.881L172.947 118H169.19L164.927 102.641L163.345 94.2256H167.828ZM209.466 86.0078V118H201.753V86.0078H209.466ZM219.09 86.0078V91.9624H192.349V86.0078H219.09ZM216.475 106.354V105.893C216.475 104.15 216.724 102.546 217.222 101.081C217.72 99.6016 218.453 98.3198 219.419 97.2358C220.386 96.1519 221.58 95.3096 223.001 94.709C224.422 94.0938 226.062 93.7861 227.923 93.7861C229.798 93.7861 231.446 94.0938 232.867 94.709C234.302 95.3096 235.503 96.1519 236.47 97.2358C237.437 98.3198 238.169 99.6016 238.667 101.081C239.166 102.546 239.415 104.15 239.415 105.893V106.354C239.415 108.083 239.166 109.687 238.667 111.167C238.169 112.631 237.437 113.913 236.47 115.012C235.503 116.096 234.31 116.938 232.889 117.539C231.468 118.139 229.827 118.439 227.967 118.439C226.106 118.439 224.458 118.139 223.023 117.539C221.587 116.938 220.386 116.096 219.419 115.012C218.453 113.913 217.72 112.631 217.222 111.167C216.724 109.687 216.475 108.083 216.475 106.354ZM223.88 105.893V106.354C223.88 107.248 223.946 108.083 224.078 108.859C224.209 109.636 224.429 110.317 224.737 110.903C225.044 111.474 225.462 111.921 225.989 112.243C226.517 112.565 227.176 112.727 227.967 112.727C228.743 112.727 229.388 112.565 229.9 112.243C230.428 111.921 230.845 111.474 231.153 110.903C231.46 110.317 231.68 109.636 231.812 108.859C231.944 108.083 232.01 107.248 232.01 106.354V105.893C232.01 105.029 231.944 104.216 231.812 103.454C231.68 102.678 231.46 101.997 231.153 101.411C230.845 100.81 230.428 100.341 229.9 100.004C229.373 99.6675 228.714 99.499 227.923 99.499C227.146 99.499 226.495 99.6675 225.967 100.004C225.455 100.341 225.044 100.81 224.737 101.411C224.429 101.997 224.209 102.678 224.078 103.454C223.946 104.216 223.88 105.029 223.88 105.893ZM254.268 86.0078H266.858C269.319 86.0078 271.458 86.374 273.274 87.1064C275.091 87.8389 276.49 88.9229 277.471 90.3584C278.467 91.7939 278.965 93.5664 278.965 95.6758C278.965 97.5068 278.68 99.0376 278.108 100.268C277.537 101.499 276.739 102.517 275.713 103.322C274.703 104.113 273.523 104.765 272.176 105.278L269.649 106.706H259.08L259.036 100.751H266.858C267.84 100.751 268.653 100.576 269.297 100.224C269.942 99.8726 270.425 99.3745 270.748 98.73C271.084 98.0708 271.253 97.2871 271.253 96.3789C271.253 95.4561 271.084 94.665 270.748 94.0059C270.411 93.3467 269.913 92.8413 269.253 92.4897C268.609 92.1382 267.811 91.9624 266.858 91.9624H261.98V118H254.268V86.0078ZM271.78 118L264.705 103.85L272.879 103.806L280.042 117.67V118H271.78ZM297.159 112.221V94.2256H304.585V118H297.642L297.159 112.221ZM297.862 107.387L299.795 107.343C299.795 108.94 299.605 110.419 299.224 111.782C298.843 113.129 298.279 114.301 297.532 115.297C296.8 116.293 295.892 117.07 294.808 117.626C293.738 118.168 292.5 118.439 291.094 118.439C289.922 118.439 288.846 118.278 287.864 117.956C286.897 117.619 286.062 117.099 285.359 116.396C284.656 115.678 284.107 114.763 283.711 113.649C283.331 112.521 283.14 111.174 283.14 109.606V94.2256H290.545V109.65C290.545 110.178 290.611 110.632 290.743 111.013C290.875 111.394 291.065 111.716 291.314 111.979C291.563 112.229 291.871 112.419 292.237 112.551C292.618 112.668 293.05 112.727 293.533 112.727C294.646 112.727 295.518 112.492 296.148 112.023C296.778 111.555 297.217 110.917 297.466 110.112C297.73 109.306 297.862 108.398 297.862 107.387ZM315.945 99.3013V118H308.541V94.2256H315.484L315.945 99.3013ZM315.066 105.3L313.331 105.344C313.331 103.527 313.55 101.909 313.99 100.488C314.429 99.0522 315.052 97.8364 315.857 96.8403C316.663 95.8442 317.623 95.0898 318.736 94.5771C319.864 94.0498 321.116 93.7861 322.493 93.7861C323.592 93.7861 324.595 93.9473 325.503 94.2695C326.426 94.5918 327.217 95.1118 327.876 95.8296C328.55 96.5474 329.063 97.4995 329.415 98.686C329.781 99.8579 329.964 101.308 329.964 103.037V118H322.515V103.015C322.515 102.062 322.383 101.337 322.12 100.839C321.856 100.327 321.475 99.9751 320.977 99.7847C320.479 99.5942 319.871 99.499 319.153 99.499C318.392 99.499 317.747 99.6455 317.22 99.9385C316.692 100.231 316.268 100.642 315.945 101.169C315.638 101.682 315.411 102.29 315.264 102.993C315.132 103.696 315.066 104.465 315.066 105.3ZM345.85 107.871H339.544C339.544 106.582 339.632 105.446 339.808 104.465C339.998 103.469 340.32 102.575 340.774 101.784C341.229 100.993 341.844 100.261 342.62 99.5869C343.309 99.0156 343.902 98.4663 344.4 97.939C344.898 97.4116 345.279 96.877 345.542 96.335C345.806 95.793 345.938 95.2144 345.938 94.5991C345.938 93.8374 345.828 93.2148 345.608 92.7314C345.403 92.248 345.088 91.8892 344.664 91.6548C344.253 91.4058 343.733 91.2812 343.104 91.2812C342.591 91.2812 342.107 91.4058 341.653 91.6548C341.214 91.9038 340.855 92.292 340.577 92.8193C340.298 93.332 340.145 94.0132 340.115 94.8628H332.667C332.71 92.6802 333.194 90.9077 334.117 89.5454C335.054 88.1685 336.299 87.165 337.852 86.5352C339.419 85.8906 341.17 85.5684 343.104 85.5684C345.242 85.5684 347.081 85.8979 348.619 86.5571C350.157 87.2163 351.336 88.1978 352.156 89.5015C352.977 90.7905 353.387 92.3799 353.387 94.2695C353.387 95.5293 353.145 96.6279 352.662 97.5654C352.193 98.4883 351.556 99.3525 350.75 100.158C349.959 100.949 349.073 101.799 348.091 102.707C347.242 103.454 346.663 104.216 346.355 104.992C346.048 105.754 345.879 106.713 345.85 107.871ZM338.643 114.55C338.643 113.496 339.024 112.617 339.786 111.914C340.547 111.196 341.536 110.837 342.752 110.837C343.968 110.837 344.957 111.196 345.718 111.914C346.48 112.617 346.861 113.496 346.861 114.55C346.861 115.605 346.48 116.491 345.718 117.209C344.957 117.912 343.968 118.264 342.752 118.264C341.536 118.264 340.547 117.912 339.786 117.209C339.024 116.491 338.643 115.605 338.643 114.55Z" fill="#424241"/>
<path d="M1363 15C1363 6.71573 1356.28 0 1348 0H1134V167H1348C1356.28 167 1363 160.284 1363 152V15Z" fill="#00AF54"/>
<path d="M1260.77 81.3079C1263.96 81.3079 1267.09 82.2553 1269.74 84.0303C1272.4 85.8053 1274.47 88.3282 1275.69 91.2799C1276.92 94.2316 1277.24 97.4796 1276.61 100.613C1275.99 103.747 1274.45 106.625 1272.19 108.884C1269.93 111.143 1267.05 112.682 1263.92 113.305C1260.79 113.928 1257.54 113.608 1254.59 112.386C1251.64 111.163 1249.11 109.093 1247.34 106.436C1245.56 103.78 1244.62 100.657 1244.62 97.4617C1244.62 93.1774 1246.32 89.0686 1249.35 86.0392C1252.38 83.0098 1256.48 81.3079 1260.77 81.3079V81.3079ZM1260.77 75.9233C1256.51 75.9233 1252.35 77.1865 1248.8 79.5532C1245.26 81.9198 1242.5 85.2837 1240.87 89.2193C1239.24 93.1549 1238.81 97.4856 1239.64 101.664C1240.48 105.842 1242.53 109.679 1245.54 112.692C1248.55 115.704 1252.39 117.755 1256.57 118.586C1260.75 119.417 1265.08 118.991 1269.01 117.361C1272.95 115.73 1276.31 112.97 1278.68 109.428C1281.04 105.886 1282.31 101.722 1282.31 97.4617C1282.31 91.7493 1280.04 86.271 1276 82.2317C1271.96 78.1925 1266.48 75.9233 1260.77 75.9233Z" fill="white"/>
<path d="M1274.23 49H1220.38C1218.96 49 1217.59 49.5673 1216.58 50.5771C1215.57 51.5869 1215 52.9565 1215 54.3846V108.231C1215 109.659 1215.57 111.028 1216.58 112.038C1217.59 113.048 1218.96 113.615 1220.38 113.615H1231.15V108.231H1220.38V70.5384H1279.62V54.3846C1279.62 52.9565 1279.05 51.5869 1278.04 50.5771C1277.03 49.5673 1275.66 49 1274.23 49V49ZM1220.38 65.1538V54.3846H1274.23V65.1538H1220.38Z" fill="white"/>
<path d="M1255.38 89.3849V105.539L1268.85 97.4618L1255.38 89.3849Z" fill="white"/>
</svg>
