<svg width="1363" height="301" viewBox="0 0 1363 301" fill="none" xmlns="http://www.w3.org/2000/svg">
<rect width="1363" height="301" rx="15" fill="#F0F0F0"/>
<path d="M0 15C0 6.71573 6.71573 0 15 0H37V301H15C6.71573 301 0 294.284 0 286V15Z" fill="#00AF54"/>
<path d="M110.584 130.733H100.862V123.456H110.584C111.909 123.456 112.983 123.232 113.807 122.784C114.63 122.337 115.23 121.719 115.606 120.931C116 120.125 116.197 119.221 116.197 118.219C116.197 117.145 116 116.151 115.606 115.238C115.23 114.325 114.63 113.591 113.807 113.036C112.983 112.463 111.909 112.176 110.584 112.176H104.407V144H94.981V104.898H110.584C113.717 104.898 116.412 105.471 118.667 106.617C120.941 107.763 122.687 109.339 123.904 111.344C125.122 113.331 125.73 115.605 125.73 118.165C125.73 120.689 125.122 122.892 123.904 124.771C122.687 126.651 120.941 128.119 118.667 129.176C116.412 130.214 113.717 130.733 110.584 130.733ZM145.147 136.695V124.718C145.147 123.894 145.031 123.187 144.798 122.596C144.565 122.005 144.198 121.549 143.697 121.227C143.195 120.886 142.524 120.716 141.683 120.716C141.002 120.716 140.42 120.833 139.937 121.065C139.454 121.298 139.087 121.647 138.836 122.113C138.585 122.578 138.46 123.169 138.46 123.885H129.41C129.41 122.542 129.705 121.298 130.296 120.152C130.905 118.989 131.764 117.977 132.874 117.118C134.002 116.258 135.345 115.596 136.902 115.13C138.478 114.647 140.232 114.405 142.166 114.405C144.476 114.405 146.535 114.79 148.343 115.56C150.169 116.33 151.61 117.485 152.667 119.024C153.723 120.546 154.251 122.462 154.251 124.771V136.668C154.251 138.566 154.358 140.007 154.573 140.992C154.788 141.959 155.092 142.809 155.486 143.543V144H146.409C145.979 143.105 145.657 142.013 145.442 140.724C145.245 139.417 145.147 138.074 145.147 136.695ZM146.248 126.249L146.302 131.083H142.3C141.459 131.083 140.743 131.199 140.152 131.432C139.579 131.664 139.113 131.987 138.755 132.398C138.415 132.792 138.165 133.24 138.003 133.741C137.86 134.243 137.789 134.771 137.789 135.326C137.789 135.863 137.914 136.346 138.165 136.776C138.433 137.188 138.791 137.51 139.239 137.743C139.686 137.975 140.188 138.092 140.743 138.092C141.745 138.092 142.596 137.904 143.294 137.528C144.01 137.134 144.556 136.66 144.932 136.104C145.308 135.549 145.496 135.03 145.496 134.547L147.483 138.253C147.125 138.969 146.714 139.694 146.248 140.428C145.8 141.162 145.236 141.843 144.556 142.469C143.894 143.078 143.079 143.579 142.112 143.973C141.146 144.349 139.973 144.537 138.594 144.537C136.804 144.537 135.157 144.17 133.653 143.436C132.167 142.702 130.976 141.681 130.081 140.375C129.186 139.05 128.738 137.528 128.738 135.809C128.738 134.305 129.007 132.962 129.544 131.781C130.099 130.599 130.931 129.597 132.042 128.773C133.152 127.949 134.566 127.323 136.285 126.893C138.003 126.463 140.027 126.249 142.354 126.249H146.248ZM168.162 121.146V144H159.112V114.942H167.598L168.162 121.146ZM167.088 128.478L164.966 128.531C164.966 126.311 165.235 124.333 165.772 122.596C166.309 120.842 167.07 119.356 168.055 118.138C169.039 116.921 170.212 115.999 171.573 115.372C172.951 114.728 174.482 114.405 176.165 114.405C177.508 114.405 178.734 114.602 179.844 114.996C180.972 115.39 181.939 116.026 182.745 116.903C183.568 117.78 184.195 118.944 184.625 120.394C185.072 121.826 185.296 123.599 185.296 125.711V144H176.192V125.685C176.192 124.521 176.031 123.635 175.708 123.026C175.386 122.399 174.921 121.97 174.312 121.737C173.703 121.504 172.96 121.388 172.083 121.388C171.152 121.388 170.364 121.567 169.72 121.925C169.075 122.283 168.556 122.784 168.162 123.429C167.786 124.055 167.509 124.798 167.33 125.658C167.168 126.517 167.088 127.457 167.088 128.478ZM205.625 114.942V121.227H188.116V114.942H205.625ZM191.795 107.718H200.845V134.52C200.845 135.29 200.935 135.89 201.114 136.319C201.293 136.731 201.597 137.027 202.027 137.206C202.474 137.367 203.065 137.447 203.799 137.447C204.319 137.447 204.748 137.438 205.088 137.42C205.429 137.385 205.751 137.34 206.055 137.286V143.758C205.285 144.009 204.48 144.197 203.638 144.322C202.797 144.465 201.902 144.537 200.953 144.537C199.019 144.537 197.363 144.233 195.984 143.624C194.624 143.015 193.585 142.057 192.869 140.75C192.153 139.444 191.795 137.743 191.795 135.648V107.718ZM218.355 122.14V144H209.305V114.942H217.764L218.355 122.14ZM226.949 114.728L226.788 123.133C226.43 123.097 225.946 123.053 225.337 122.999C224.729 122.945 224.218 122.918 223.807 122.918C222.75 122.918 221.837 123.044 221.067 123.294C220.315 123.527 219.689 123.885 219.188 124.369C218.704 124.834 218.346 125.425 218.113 126.141C217.898 126.857 217.8 127.69 217.818 128.639L216.18 127.564C216.18 125.613 216.368 123.84 216.744 122.247C217.138 120.636 217.693 119.248 218.409 118.084C219.125 116.903 219.993 115.999 221.014 115.372C222.034 114.728 223.18 114.405 224.451 114.405C224.899 114.405 225.337 114.432 225.767 114.486C226.215 114.54 226.609 114.62 226.949 114.728ZM239.463 140.589L246.983 114.942H256.705L245.022 148.324C244.772 149.058 244.441 149.846 244.029 150.687C243.617 151.546 243.053 152.361 242.337 153.131C241.621 153.901 240.699 154.527 239.571 155.011C238.461 155.494 237.082 155.736 235.435 155.736C234.558 155.736 233.913 155.691 233.501 155.602C233.108 155.53 232.499 155.396 231.675 155.199V148.727C231.908 148.727 232.105 148.727 232.266 148.727C232.445 148.727 232.642 148.727 232.857 148.727C233.824 148.727 234.594 148.628 235.167 148.431C235.757 148.234 236.205 147.948 236.509 147.572C236.832 147.196 237.082 146.739 237.261 146.202L239.463 140.589ZM237.557 114.942L243.277 135.272L244.271 144.859H238.201L227.862 114.942H237.557ZM275.101 130.733H265.379V123.456H275.101C276.425 123.456 277.5 123.232 278.323 122.784C279.147 122.337 279.747 121.719 280.123 120.931C280.516 120.125 280.713 119.221 280.713 118.219C280.713 117.145 280.516 116.151 280.123 115.238C279.747 114.325 279.147 113.591 278.323 113.036C277.5 112.463 276.425 112.176 275.101 112.176H268.924V144H259.498V104.898H275.101C278.234 104.898 280.928 105.471 283.184 106.617C285.458 107.763 287.203 109.339 288.421 111.344C289.638 113.331 290.247 115.605 290.247 118.165C290.247 120.689 289.638 122.892 288.421 124.771C287.203 126.651 285.458 128.119 283.184 129.176C280.928 130.214 278.234 130.733 275.101 130.733ZM309.664 136.695V124.718C309.664 123.894 309.547 123.187 309.314 122.596C309.082 122.005 308.715 121.549 308.213 121.227C307.712 120.886 307.041 120.716 306.199 120.716C305.519 120.716 304.937 120.833 304.454 121.065C303.97 121.298 303.603 121.647 303.353 122.113C303.102 122.578 302.977 123.169 302.977 123.885H293.926C293.926 122.542 294.222 121.298 294.812 120.152C295.421 118.989 296.281 117.977 297.391 117.118C298.519 116.258 299.861 115.596 301.419 115.13C302.994 114.647 304.749 114.405 306.683 114.405C308.992 114.405 311.051 114.79 312.859 115.56C314.686 116.33 316.127 117.485 317.183 119.024C318.239 120.546 318.768 122.462 318.768 124.771V136.668C318.768 138.566 318.875 140.007 319.09 140.992C319.305 141.959 319.609 142.809 320.003 143.543V144H310.926C310.496 143.105 310.174 142.013 309.959 140.724C309.762 139.417 309.664 138.074 309.664 136.695ZM310.765 126.249L310.818 131.083H306.817C305.975 131.083 305.259 131.199 304.668 131.432C304.096 131.664 303.63 131.987 303.272 132.398C302.932 132.792 302.681 133.24 302.52 133.741C302.377 134.243 302.305 134.771 302.305 135.326C302.305 135.863 302.431 136.346 302.681 136.776C302.95 137.188 303.308 137.51 303.755 137.743C304.203 137.975 304.704 138.092 305.259 138.092C306.262 138.092 307.112 137.904 307.811 137.528C308.527 137.134 309.073 136.66 309.449 136.104C309.825 135.549 310.013 135.03 310.013 134.547L312 138.253C311.642 138.969 311.23 139.694 310.765 140.428C310.317 141.162 309.753 141.843 309.073 142.469C308.41 143.078 307.596 143.579 306.629 143.973C305.662 144.349 304.489 144.537 303.111 144.537C301.32 144.537 299.673 144.17 298.169 143.436C296.683 142.702 295.493 141.681 294.598 140.375C293.702 139.05 293.255 137.528 293.255 135.809C293.255 134.305 293.523 132.962 294.061 131.781C294.616 130.599 295.448 129.597 296.558 128.773C297.668 127.949 299.083 127.323 300.801 126.893C302.52 126.463 304.543 126.249 306.871 126.249H310.765ZM333.35 102.75V144H324.273V102.75H333.35Z" fill="black"/>
<path d="M97.6396 55.1172L102.835 66.4648L108.03 55.1172H113.619L105.433 70.9424V80H100.237V70.9424L92.0342 55.1172H97.6396ZM124.402 75.8301V67.5928C124.402 67.0003 124.306 66.4933 124.112 66.0718C123.918 65.6388 123.616 65.3027 123.206 65.0635C122.807 64.8242 122.289 64.7046 121.651 64.7046C121.104 64.7046 120.631 64.8014 120.232 64.9951C119.834 65.1774 119.526 65.4451 119.31 65.7983C119.093 66.1401 118.985 66.5446 118.985 67.0117H114.063C114.063 66.2256 114.245 65.4793 114.61 64.7729C114.974 64.0666 115.504 63.4456 116.199 62.9102C116.894 62.3633 117.72 61.936 118.677 61.6284C119.646 61.3208 120.728 61.167 121.924 61.167C123.36 61.167 124.636 61.4062 125.752 61.8848C126.869 62.3633 127.746 63.0811 128.384 64.0381C129.034 64.9951 129.358 66.1914 129.358 67.627V75.5396C129.358 76.5535 129.421 77.3853 129.546 78.0347C129.672 78.6727 129.854 79.231 130.093 79.7095V80H125.12C124.881 79.4987 124.699 78.8721 124.573 78.1201C124.459 77.3568 124.402 76.5934 124.402 75.8301ZM125.052 68.7378L125.086 71.5234H122.334C121.685 71.5234 121.121 71.5975 120.643 71.7456C120.164 71.8937 119.771 72.1045 119.463 72.3779C119.156 72.64 118.928 72.9476 118.78 73.3008C118.643 73.654 118.575 74.0413 118.575 74.4629C118.575 74.8844 118.672 75.2661 118.865 75.6079C119.059 75.9383 119.338 76.2004 119.703 76.394C120.067 76.5763 120.494 76.6675 120.984 76.6675C121.725 76.6675 122.369 76.5194 122.916 76.2231C123.462 75.9269 123.884 75.5623 124.18 75.1294C124.488 74.6965 124.647 74.2863 124.659 73.8989L125.958 75.9839C125.775 76.451 125.525 76.9352 125.206 77.4365C124.898 77.9378 124.505 78.4106 124.026 78.855C123.548 79.2879 122.972 79.6468 122.3 79.9316C121.628 80.2051 120.831 80.3418 119.908 80.3418C118.734 80.3418 117.669 80.1082 116.712 79.6411C115.766 79.1626 115.014 78.5075 114.456 77.6758C113.909 76.8327 113.636 75.8757 113.636 74.8047C113.636 73.8363 113.818 72.9761 114.183 72.2241C114.547 71.4722 115.083 70.8398 115.789 70.3271C116.507 69.8031 117.401 69.41 118.472 69.1479C119.543 68.8745 120.785 68.7378 122.198 68.7378H125.052ZM137.955 53.75V80H133.033V53.75H137.955ZM137.254 70.105H135.904C135.915 68.8175 136.086 67.6326 136.417 66.5503C136.747 65.4565 137.22 64.5109 137.835 63.7134C138.45 62.9045 139.185 62.2778 140.04 61.8335C140.905 61.3892 141.862 61.167 142.911 61.167C143.822 61.167 144.648 61.298 145.389 61.5601C146.141 61.8107 146.784 62.2209 147.32 62.7905C147.867 63.3488 148.288 64.0837 148.584 64.9951C148.881 65.9066 149.029 67.0117 149.029 68.3105V80H144.073V68.2764C144.073 67.4561 143.953 66.8123 143.714 66.3452C143.486 65.8667 143.15 65.5306 142.706 65.3369C142.273 65.1318 141.737 65.0293 141.099 65.0293C140.393 65.0293 139.789 65.1603 139.288 65.4224C138.798 65.6844 138.405 66.049 138.108 66.5161C137.812 66.9718 137.596 67.5073 137.459 68.1226C137.322 68.7378 137.254 69.3986 137.254 70.105ZM158.257 77.915L163.162 61.5088H168.443L161.009 82.7856C160.849 83.2528 160.633 83.7541 160.359 84.2896C160.097 84.825 159.738 85.332 159.283 85.8105C158.838 86.3005 158.274 86.6992 157.591 87.0068C156.919 87.3145 156.093 87.4683 155.113 87.4683C154.646 87.4683 154.264 87.4398 153.968 87.3828C153.672 87.3258 153.318 87.2461 152.908 87.1436V83.5376C153.034 83.5376 153.165 83.5376 153.301 83.5376C153.438 83.549 153.569 83.5547 153.694 83.5547C154.344 83.5547 154.874 83.4806 155.284 83.3325C155.694 83.1844 156.024 82.9565 156.275 82.6489C156.526 82.3527 156.725 81.9653 156.873 81.4868L158.257 77.915ZM156.207 61.5088L160.223 74.9072L160.923 80.1196L157.574 80.4785L150.926 61.5088H156.207ZM180.115 75.8301V67.5928C180.115 67.0003 180.018 66.4933 179.825 66.0718C179.631 65.6388 179.329 65.3027 178.919 65.0635C178.52 64.8242 178.002 64.7046 177.364 64.7046C176.817 64.7046 176.344 64.8014 175.945 64.9951C175.547 65.1774 175.239 65.4451 175.022 65.7983C174.806 66.1401 174.698 66.5446 174.698 67.0117H169.776C169.776 66.2256 169.958 65.4793 170.323 64.7729C170.687 64.0666 171.217 63.4456 171.912 62.9102C172.607 62.3633 173.433 61.936 174.39 61.6284C175.359 61.3208 176.441 61.167 177.637 61.167C179.073 61.167 180.349 61.4062 181.465 61.8848C182.582 62.3633 183.459 63.0811 184.097 64.0381C184.747 64.9951 185.071 66.1914 185.071 67.627V75.5396C185.071 76.5535 185.134 77.3853 185.259 78.0347C185.385 78.6727 185.567 79.231 185.806 79.7095V80H180.833C180.594 79.4987 180.411 78.8721 180.286 78.1201C180.172 77.3568 180.115 76.5934 180.115 75.8301ZM180.765 68.7378L180.799 71.5234H178.047C177.398 71.5234 176.834 71.5975 176.355 71.7456C175.877 71.8937 175.484 72.1045 175.176 72.3779C174.869 72.64 174.641 72.9476 174.493 73.3008C174.356 73.654 174.288 74.0413 174.288 74.4629C174.288 74.8844 174.384 75.2661 174.578 75.6079C174.772 75.9383 175.051 76.2004 175.416 76.394C175.78 76.5763 176.207 76.6675 176.697 76.6675C177.438 76.6675 178.082 76.5194 178.628 76.2231C179.175 75.9269 179.597 75.5623 179.893 75.1294C180.201 74.6965 180.36 74.2863 180.372 73.8989L181.67 75.9839C181.488 76.451 181.237 76.9352 180.918 77.4365C180.611 77.9378 180.218 78.4106 179.739 78.855C179.261 79.2879 178.685 79.6468 178.013 79.9316C177.341 80.2051 176.543 80.3418 175.621 80.3418C174.447 80.3418 173.382 80.1082 172.425 79.6411C171.479 79.1626 170.727 78.5075 170.169 77.6758C169.622 76.8327 169.349 75.8757 169.349 74.8047C169.349 73.8363 169.531 72.9761 169.896 72.2241C170.26 71.4722 170.796 70.8398 171.502 70.3271C172.22 69.8031 173.114 69.41 174.185 69.1479C175.256 68.8745 176.498 68.7378 177.911 68.7378H180.765ZM203.016 55.1172V80H197.889V55.1172H203.016ZM217.918 55.1172L208.057 67.4048L202.366 73.5229L201.443 68.6694L205.289 63.4058L211.629 55.1172H217.918ZM212.09 80L204.759 68.4985L208.553 65.3198L218.157 80H212.09ZM224.634 53.75V80H219.712V53.75H224.634ZM223.934 70.105H222.583C222.595 68.8175 222.766 67.6326 223.096 66.5503C223.427 65.4565 223.899 64.5109 224.515 63.7134C225.13 62.9045 225.865 62.2778 226.719 61.8335C227.585 61.3892 228.542 61.167 229.59 61.167C230.502 61.167 231.328 61.298 232.068 61.5601C232.82 61.8107 233.464 62.2209 234 62.7905C234.546 63.3488 234.968 64.0837 235.264 64.9951C235.56 65.9066 235.708 67.0117 235.708 68.3105V80H230.752V68.2764C230.752 67.4561 230.633 66.8123 230.394 66.3452C230.166 65.8667 229.83 65.5306 229.385 65.3369C228.952 65.1318 228.417 65.0293 227.779 65.0293C227.072 65.0293 226.469 65.1603 225.967 65.4224C225.477 65.6844 225.084 66.049 224.788 66.5161C224.492 66.9718 224.275 67.5073 224.139 68.1226C224.002 68.7378 223.934 69.3986 223.934 70.105ZM238.665 70.9424V70.5835C238.665 69.2277 238.859 67.9801 239.246 66.8408C239.633 65.6901 240.197 64.6932 240.938 63.8501C241.679 63.007 242.59 62.3519 243.672 61.8848C244.755 61.4062 245.997 61.167 247.398 61.167C248.799 61.167 250.047 61.4062 251.141 61.8848C252.234 62.3519 253.152 63.007 253.892 63.8501C254.644 64.6932 255.214 65.6901 255.601 66.8408C255.988 67.9801 256.182 69.2277 256.182 70.5835V70.9424C256.182 72.2868 255.988 73.5343 255.601 74.6851C255.214 75.8244 254.644 76.8213 253.892 77.6758C253.152 78.5189 252.24 79.174 251.158 79.6411C250.075 80.1082 248.833 80.3418 247.432 80.3418C246.031 80.3418 244.783 80.1082 243.689 79.6411C242.607 79.174 241.69 78.5189 240.938 77.6758C240.197 76.8213 239.633 75.8244 239.246 74.6851C238.859 73.5343 238.665 72.2868 238.665 70.9424ZM243.587 70.5835V70.9424C243.587 71.7171 243.655 72.4406 243.792 73.1128C243.929 73.785 244.145 74.3774 244.441 74.8901C244.749 75.3914 245.148 75.7845 245.638 76.0693C246.128 76.3542 246.726 76.4966 247.432 76.4966C248.116 76.4966 248.702 76.3542 249.192 76.0693C249.682 75.7845 250.075 75.3914 250.372 74.8901C250.668 74.3774 250.884 73.785 251.021 73.1128C251.169 72.4406 251.243 71.7171 251.243 70.9424V70.5835C251.243 69.8315 251.169 69.1252 251.021 68.4644C250.884 67.7922 250.662 67.1997 250.354 66.687C250.058 66.1629 249.665 65.7528 249.175 65.4565C248.685 65.1603 248.093 65.0122 247.398 65.0122C246.703 65.0122 246.111 65.1603 245.621 65.4565C245.142 65.7528 244.749 66.1629 244.441 66.687C244.145 67.1997 243.929 67.7922 243.792 68.4644C243.655 69.1252 243.587 69.8315 243.587 70.5835ZM270.127 75.9668V53.75H275.083V80H270.623L270.127 75.9668ZM258.438 70.9766V70.6177C258.438 69.2049 258.597 67.9232 258.917 66.7725C259.236 65.6104 259.703 64.6134 260.318 63.7817C260.933 62.95 261.691 62.3063 262.591 61.8506C263.491 61.3949 264.516 61.167 265.667 61.167C266.749 61.167 267.695 61.3949 268.504 61.8506C269.324 62.3063 270.019 62.9557 270.589 63.7988C271.17 64.6305 271.637 65.616 271.99 66.7554C272.343 67.8833 272.6 69.1195 272.759 70.4639V71.25C272.6 72.5374 272.343 73.7337 271.99 74.8389C271.637 75.944 271.17 76.9124 270.589 77.7441C270.019 78.5645 269.324 79.2025 268.504 79.6582C267.684 80.1139 266.727 80.3418 265.633 80.3418C264.482 80.3418 263.457 80.1082 262.557 79.6411C261.668 79.174 260.916 78.5189 260.301 77.6758C259.697 76.8327 259.236 75.8415 258.917 74.7021C258.597 73.5628 258.438 72.321 258.438 70.9766ZM263.36 70.6177V70.9766C263.36 71.7399 263.417 72.452 263.531 73.1128C263.656 73.7736 263.855 74.3604 264.129 74.873C264.414 75.3743 264.778 75.7674 265.223 76.0522C265.678 76.3257 266.231 76.4624 266.88 76.4624C267.723 76.4624 268.418 76.2744 268.965 75.8984C269.512 75.5111 269.928 74.9813 270.213 74.3091C270.509 73.6369 270.68 72.8621 270.726 71.9849V69.7461C270.691 69.0283 270.589 68.3846 270.418 67.8149C270.258 67.2339 270.019 66.7383 269.7 66.3281C269.393 65.918 269.005 65.599 268.538 65.3711C268.082 65.1432 267.541 65.0293 266.915 65.0293C266.277 65.0293 265.73 65.1774 265.274 65.4736C264.818 65.7585 264.448 66.1515 264.163 66.6528C263.89 67.1541 263.685 67.7466 263.548 68.4302C263.423 69.1024 263.36 69.8315 263.36 70.6177ZM283.851 65.542V80H278.929V61.5088H283.56L283.851 65.542ZM289.422 61.3892L289.336 65.9521C289.097 65.918 288.807 65.8895 288.465 65.8667C288.134 65.8325 287.833 65.8154 287.559 65.8154C286.864 65.8154 286.26 65.9066 285.748 66.0889C285.246 66.2598 284.825 66.5161 284.483 66.8579C284.153 67.1997 283.902 67.6156 283.731 68.1055C283.571 68.5954 283.48 69.1536 283.458 69.7803L282.466 69.4727C282.466 68.2764 282.586 67.1769 282.825 66.1743C283.064 65.1603 283.412 64.2773 283.868 63.5254C284.335 62.7734 284.904 62.1924 285.577 61.7822C286.249 61.3721 287.018 61.167 287.884 61.167C288.157 61.167 288.436 61.1898 288.721 61.2354C289.006 61.2695 289.24 61.3208 289.422 61.3892Z" fill="#888888"/>
<rect x="92" y="181" width="1179" height="80" rx="13.3333" fill="#CCCCCC"/>
<rect x="107" y="196.333" width="208" height="49.3333" rx="4.66667" fill="#888888" stroke="#888888" stroke-width="4"/>
<path d="M183.833 213.167V228.333H180.177V213.167H183.833ZM189.729 219.479V222.292H182.792V219.479H189.729ZM190.323 213.167V215.99H182.792V213.167H190.323ZM195.385 212.333V228.333H191.865V212.333H195.385ZM204.135 225.594V217.062H207.656V228.333H204.365L204.135 225.594ZM204.469 223.302L205.385 223.281C205.385 224.038 205.295 224.74 205.115 225.385C204.934 226.024 204.667 226.58 204.313 227.052C203.965 227.524 203.535 227.892 203.021 228.156C202.514 228.413 201.927 228.542 201.26 228.542C200.705 228.542 200.194 228.465 199.729 228.312C199.271 228.153 198.875 227.906 198.542 227.573C198.208 227.233 197.948 226.799 197.76 226.271C197.58 225.736 197.49 225.097 197.49 224.354V217.062H201V224.375C201 224.625 201.031 224.84 201.094 225.021C201.156 225.201 201.247 225.354 201.365 225.479C201.483 225.597 201.628 225.687 201.802 225.75C201.983 225.806 202.188 225.833 202.417 225.833C202.944 225.833 203.358 225.722 203.656 225.5C203.955 225.278 204.163 224.976 204.281 224.594C204.406 224.212 204.469 223.781 204.469 223.302ZM215.531 217.062V219.5H208.74V217.062H215.531ZM210.167 214.26H213.677V224.656C213.677 224.955 213.712 225.187 213.781 225.354C213.851 225.514 213.969 225.628 214.135 225.698C214.309 225.76 214.538 225.792 214.823 225.792C215.024 225.792 215.191 225.788 215.323 225.781C215.455 225.767 215.58 225.75 215.698 225.729V228.24C215.399 228.337 215.087 228.41 214.76 228.458C214.434 228.514 214.087 228.542 213.719 228.542C212.969 228.542 212.326 228.424 211.792 228.187C211.264 227.951 210.861 227.58 210.583 227.073C210.306 226.566 210.167 225.906 210.167 225.094V214.26ZM222.865 217.062V219.5H216.073V217.062H222.865ZM217.5 214.26H221.01V224.656C221.01 224.955 221.045 225.187 221.115 225.354C221.184 225.514 221.302 225.628 221.469 225.698C221.642 225.76 221.872 225.792 222.156 225.792C222.358 225.792 222.524 225.788 222.656 225.781C222.788 225.767 222.913 225.75 223.031 225.729V228.24C222.733 228.337 222.42 228.41 222.094 228.458C221.767 228.514 221.42 228.542 221.052 228.542C220.302 228.542 219.66 228.424 219.125 228.187C218.597 227.951 218.194 227.58 217.917 227.073C217.639 226.566 217.5 225.906 217.5 225.094V214.26ZM229.719 228.542C228.802 228.542 227.983 228.399 227.26 228.115C226.538 227.823 225.927 227.424 225.427 226.917C224.934 226.41 224.556 225.826 224.292 225.167C224.035 224.507 223.906 223.809 223.906 223.073V222.677C223.906 221.851 224.021 221.087 224.25 220.385C224.479 219.677 224.819 219.059 225.271 218.531C225.722 218.003 226.288 217.594 226.969 217.302C227.649 217.003 228.441 216.854 229.344 216.854C230.142 216.854 230.858 216.983 231.49 217.24C232.122 217.497 232.656 217.865 233.094 218.344C233.538 218.823 233.875 219.403 234.104 220.083C234.34 220.764 234.458 221.528 234.458 222.375V223.802H225.25V221.604H231.031V221.333C231.038 220.958 230.972 220.639 230.833 220.375C230.701 220.111 230.507 219.91 230.25 219.771C229.993 219.632 229.681 219.562 229.312 219.562C228.931 219.562 228.615 219.646 228.365 219.812C228.122 219.979 227.931 220.208 227.792 220.5C227.66 220.785 227.566 221.115 227.51 221.49C227.455 221.865 227.427 222.26 227.427 222.677V223.073C227.427 223.49 227.483 223.868 227.594 224.208C227.712 224.549 227.878 224.84 228.094 225.083C228.316 225.319 228.58 225.503 228.885 225.635C229.198 225.767 229.552 225.833 229.948 225.833C230.427 225.833 230.899 225.743 231.365 225.562C231.83 225.382 232.229 225.083 232.562 224.667L234.156 226.562C233.927 226.889 233.601 227.205 233.177 227.51C232.76 227.816 232.26 228.066 231.677 228.26C231.094 228.448 230.441 228.542 229.719 228.542ZM239.427 219.854V228.333H235.917V217.062H239.198L239.427 219.854ZM242.76 216.979L242.698 220.24C242.559 220.226 242.372 220.208 242.135 220.187C241.899 220.167 241.701 220.156 241.542 220.156C241.132 220.156 240.778 220.205 240.479 220.302C240.187 220.392 239.944 220.531 239.75 220.719C239.562 220.899 239.424 221.128 239.333 221.406C239.25 221.684 239.212 222.007 239.219 222.375L238.583 221.958C238.583 221.201 238.656 220.514 238.802 219.896C238.955 219.271 239.17 218.733 239.448 218.281C239.726 217.823 240.062 217.472 240.458 217.229C240.854 216.979 241.299 216.854 241.792 216.854C241.965 216.854 242.135 216.865 242.302 216.885C242.476 216.906 242.628 216.937 242.76 216.979Z" fill="white"/>
<rect x="339" y="196.333" width="208" height="49.3333" rx="4.66667" fill="#888888" stroke="#888888" stroke-width="4"/>
<path d="M415.458 228.333H412.094L412.115 225.521H415.458C416.153 225.521 416.74 225.354 417.219 225.021C417.705 224.687 418.073 224.191 418.323 223.531C418.58 222.865 418.708 222.045 418.708 221.073V220.417C418.708 219.687 418.635 219.049 418.49 218.5C418.351 217.944 418.142 217.483 417.865 217.115C417.587 216.74 417.24 216.458 416.823 216.271C416.413 216.083 415.941 215.99 415.406 215.99H412.031V213.167H415.406C416.434 213.167 417.375 213.344 418.229 213.698C419.09 214.045 419.833 214.545 420.458 215.198C421.09 215.844 421.576 216.611 421.917 217.5C422.264 218.382 422.438 219.361 422.438 220.437V221.073C422.438 222.142 422.264 223.122 421.917 224.01C421.576 224.899 421.094 225.667 420.469 226.312C419.844 226.958 419.104 227.458 418.25 227.812C417.403 228.16 416.472 228.333 415.458 228.333ZM414.188 213.167V228.333H410.531V213.167H414.188ZM424.438 217.062H427.958V228.698C427.958 229.601 427.785 230.361 427.438 230.979C427.09 231.604 426.594 232.076 425.948 232.396C425.302 232.722 424.531 232.885 423.635 232.885C423.337 232.885 423.062 232.872 422.812 232.844C422.556 232.823 422.274 232.778 421.969 232.708V230.052C422.149 230.08 422.316 230.101 422.469 230.115C422.622 230.135 422.788 230.146 422.969 230.146C423.288 230.146 423.556 230.094 423.771 229.99C423.986 229.885 424.149 229.726 424.26 229.51C424.378 229.295 424.438 229.024 424.438 228.698V217.062ZM424.177 214.156C424.177 213.656 424.358 213.247 424.719 212.927C425.08 212.608 425.549 212.448 426.125 212.448C426.701 212.448 427.17 212.608 427.531 212.927C427.892 213.247 428.073 213.656 428.073 214.156C428.073 214.656 427.892 215.066 427.531 215.385C427.17 215.705 426.701 215.865 426.125 215.865C425.549 215.865 425.08 215.705 424.719 215.385C424.358 215.066 424.177 214.656 424.177 214.156ZM435.802 225.5V220.854C435.802 220.535 435.757 220.26 435.667 220.031C435.576 219.802 435.434 219.625 435.24 219.5C435.045 219.368 434.785 219.302 434.458 219.302C434.194 219.302 433.969 219.347 433.781 219.437C433.594 219.528 433.451 219.663 433.354 219.844C433.257 220.024 433.208 220.253 433.208 220.531H429.698C429.698 220.01 429.813 219.528 430.042 219.083C430.278 218.632 430.611 218.24 431.042 217.906C431.479 217.573 432 217.316 432.604 217.135C433.215 216.948 433.896 216.854 434.646 216.854C435.542 216.854 436.34 217.003 437.042 217.302C437.75 217.601 438.309 218.049 438.719 218.646C439.128 219.236 439.333 219.979 439.333 220.875V225.49C439.333 226.226 439.375 226.785 439.458 227.167C439.542 227.542 439.66 227.872 439.813 228.156V228.333H436.292C436.125 227.986 436 227.562 435.917 227.062C435.84 226.556 435.802 226.035 435.802 225.5ZM436.229 221.448L436.25 223.323H434.698C434.372 223.323 434.094 223.368 433.865 223.458C433.642 223.549 433.462 223.674 433.323 223.833C433.191 223.986 433.094 224.16 433.031 224.354C432.976 224.549 432.948 224.753 432.948 224.969C432.948 225.177 432.997 225.365 433.094 225.531C433.198 225.691 433.337 225.816 433.51 225.906C433.684 225.997 433.878 226.042 434.094 226.042C434.483 226.042 434.813 225.969 435.083 225.823C435.361 225.67 435.573 225.486 435.719 225.271C435.865 225.056 435.938 224.854 435.938 224.667L436.708 226.104C436.569 226.382 436.41 226.663 436.229 226.948C436.056 227.233 435.837 227.497 435.573 227.74C435.316 227.976 435 228.17 434.625 228.323C434.25 228.469 433.795 228.542 433.26 228.542C432.566 228.542 431.927 228.399 431.344 228.115C430.767 227.83 430.306 227.434 429.958 226.927C429.611 226.413 429.438 225.823 429.438 225.156C429.438 224.573 429.542 224.052 429.75 223.594C429.965 223.135 430.288 222.747 430.719 222.427C431.149 222.108 431.698 221.865 432.365 221.698C433.031 221.531 433.816 221.448 434.719 221.448H436.229ZM444.729 219.469V228.333H441.219V217.062H444.51L444.729 219.469ZM444.313 222.312L443.49 222.333C443.49 221.472 443.594 220.705 443.802 220.031C444.01 219.351 444.306 218.774 444.688 218.302C445.069 217.83 445.524 217.472 446.052 217.229C446.587 216.979 447.181 216.854 447.833 216.854C448.354 216.854 448.83 216.931 449.26 217.083C449.698 217.236 450.073 217.483 450.385 217.823C450.705 218.163 450.948 218.615 451.115 219.177C451.288 219.733 451.375 220.42 451.375 221.24V228.333H447.844V221.229C447.844 220.778 447.781 220.434 447.656 220.198C447.531 219.955 447.351 219.788 447.115 219.698C446.878 219.608 446.59 219.562 446.25 219.562C445.889 219.562 445.583 219.632 445.333 219.771C445.083 219.91 444.882 220.104 444.729 220.354C444.583 220.597 444.476 220.885 444.406 221.219C444.344 221.552 444.313 221.917 444.313 222.312ZM460.406 217.062H463.594V227.896C463.594 228.937 463.354 229.819 462.875 230.542C462.396 231.271 461.726 231.823 460.865 232.198C460.01 232.58 459.01 232.771 457.865 232.771C457.358 232.771 456.84 232.705 456.313 232.573C455.785 232.448 455.292 232.26 454.833 232.01C454.375 231.76 453.99 231.451 453.677 231.083L455.146 229.021C455.431 229.34 455.788 229.611 456.219 229.833C456.649 230.062 457.156 230.177 457.74 230.177C458.247 230.177 458.67 230.087 459.01 229.906C459.358 229.726 459.622 229.462 459.802 229.115C459.983 228.774 460.073 228.361 460.073 227.875V219.729L460.406 217.062ZM452.917 222.833V222.615C452.917 221.76 453.021 220.983 453.229 220.281C453.444 219.573 453.75 218.965 454.146 218.458C454.549 217.944 455.035 217.549 455.604 217.271C456.174 216.993 456.816 216.854 457.531 216.854C458.302 216.854 458.934 217.003 459.427 217.302C459.927 217.594 460.326 218.003 460.625 218.531C460.931 219.059 461.167 219.677 461.333 220.385C461.507 221.087 461.653 221.844 461.771 222.656V222.917C461.653 223.681 461.49 224.403 461.281 225.083C461.08 225.757 460.816 226.354 460.49 226.875C460.163 227.396 459.753 227.806 459.26 228.104C458.774 228.396 458.191 228.542 457.51 228.542C456.802 228.542 456.163 228.399 455.594 228.115C455.031 227.83 454.549 227.431 454.146 226.917C453.75 226.403 453.444 225.799 453.229 225.104C453.021 224.41 452.917 223.653 452.917 222.833ZM456.427 222.615V222.833C456.427 223.257 456.465 223.649 456.542 224.01C456.625 224.372 456.75 224.691 456.917 224.969C457.083 225.24 457.288 225.451 457.531 225.604C457.781 225.757 458.073 225.833 458.406 225.833C458.913 225.833 459.323 225.726 459.635 225.51C459.948 225.295 460.174 224.99 460.313 224.594C460.451 224.198 460.51 223.733 460.49 223.198V222.375C460.503 221.917 460.472 221.514 460.396 221.167C460.319 220.812 460.198 220.517 460.031 220.281C459.872 220.045 459.656 219.868 459.385 219.75C459.122 219.625 458.802 219.562 458.427 219.562C458.101 219.562 457.813 219.639 457.563 219.792C457.313 219.944 457.104 220.16 456.938 220.437C456.771 220.708 456.642 221.031 456.552 221.406C456.469 221.774 456.427 222.177 456.427 222.615ZM465.177 222.812V222.594C465.177 221.767 465.295 221.007 465.531 220.312C465.767 219.611 466.115 219.003 466.573 218.49C467.031 217.976 467.597 217.576 468.271 217.292C468.944 217 469.722 216.854 470.604 216.854C471.493 216.854 472.274 217 472.948 217.292C473.628 217.576 474.198 217.976 474.656 218.49C475.115 219.003 475.462 219.611 475.698 220.312C475.934 221.007 476.052 221.767 476.052 222.594V222.812C476.052 223.632 475.934 224.392 475.698 225.094C475.462 225.788 475.115 226.396 474.656 226.917C474.198 227.431 473.632 227.83 472.958 228.115C472.285 228.399 471.507 228.542 470.625 228.542C469.743 228.542 468.962 228.399 468.281 228.115C467.601 227.83 467.031 227.431 466.573 226.917C466.115 226.396 465.767 225.788 465.531 225.094C465.295 224.392 465.177 223.632 465.177 222.812ZM468.688 222.594V222.812C468.688 223.236 468.719 223.632 468.781 224C468.844 224.368 468.948 224.691 469.094 224.969C469.24 225.24 469.438 225.451 469.688 225.604C469.938 225.757 470.25 225.833 470.625 225.833C470.993 225.833 471.299 225.757 471.542 225.604C471.792 225.451 471.99 225.24 472.135 224.969C472.281 224.691 472.385 224.368 472.448 224C472.51 223.632 472.542 223.236 472.542 222.812V222.594C472.542 222.184 472.51 221.799 472.448 221.437C472.385 221.069 472.281 220.747 472.135 220.469C471.99 220.184 471.792 219.962 471.542 219.802C471.292 219.642 470.979 219.562 470.604 219.562C470.236 219.562 469.927 219.642 469.677 219.802C469.434 219.962 469.24 220.184 469.094 220.469C468.948 220.747 468.844 221.069 468.781 221.437C468.719 221.799 468.688 222.184 468.688 222.594Z" fill="white"/>
<rect x="571" y="196.333" width="208" height="49.3333" rx="4.66667" fill="#888888" stroke="#888888" stroke-width="4"/>
<path d="M630.656 213.167H633.635L637.021 223.719L640.406 213.167H643.385L638.229 228.333H635.813L630.656 213.167ZM628.844 213.167H631.927L632.5 224.792V228.333H628.844V213.167ZM642.115 213.167H645.208V228.333H641.542V224.792L642.115 213.167ZM646.948 222.812V222.594C646.948 221.767 647.066 221.007 647.302 220.312C647.538 219.611 647.885 219.003 648.344 218.49C648.802 217.976 649.368 217.576 650.042 217.292C650.715 217 651.493 216.854 652.375 216.854C653.264 216.854 654.045 217 654.719 217.292C655.399 217.576 655.969 217.976 656.427 218.49C656.885 219.003 657.233 219.611 657.469 220.312C657.705 221.007 657.823 221.767 657.823 222.594V222.812C657.823 223.632 657.705 224.392 657.469 225.094C657.233 225.788 656.885 226.396 656.427 226.917C655.969 227.431 655.403 227.83 654.729 228.115C654.056 228.399 653.278 228.542 652.396 228.542C651.514 228.542 650.733 228.399 650.052 228.115C649.372 227.83 648.802 227.431 648.344 226.917C647.885 226.396 647.538 225.788 647.302 225.094C647.066 224.392 646.948 223.632 646.948 222.812ZM650.458 222.594V222.812C650.458 223.236 650.49 223.632 650.552 224C650.615 224.368 650.719 224.691 650.865 224.969C651.01 225.24 651.208 225.451 651.458 225.604C651.708 225.757 652.021 225.833 652.396 225.833C652.764 225.833 653.069 225.757 653.313 225.604C653.563 225.451 653.76 225.24 653.906 224.969C654.052 224.691 654.156 224.368 654.219 224C654.281 223.632 654.313 223.236 654.313 222.812V222.594C654.313 222.184 654.281 221.799 654.219 221.437C654.156 221.069 654.052 220.747 653.906 220.469C653.76 220.184 653.563 219.962 653.313 219.802C653.063 219.642 652.75 219.562 652.375 219.562C652.007 219.562 651.698 219.642 651.448 219.802C651.205 219.962 651.01 220.184 650.865 220.469C650.719 220.747 650.615 221.069 650.552 221.437C650.49 221.799 650.458 222.184 650.458 222.594ZM662.833 219.469V228.333H659.323V217.062H662.615L662.833 219.469ZM662.417 222.312L661.594 222.333C661.594 221.472 661.698 220.705 661.906 220.031C662.115 219.351 662.41 218.774 662.792 218.302C663.174 217.83 663.628 217.472 664.156 217.229C664.691 216.979 665.285 216.854 665.938 216.854C666.458 216.854 666.934 216.931 667.365 217.083C667.802 217.236 668.177 217.483 668.49 217.823C668.809 218.163 669.052 218.615 669.219 219.177C669.392 219.733 669.479 220.42 669.479 221.24V228.333H665.948V221.229C665.948 220.778 665.885 220.434 665.76 220.198C665.635 219.955 665.455 219.788 665.219 219.698C664.983 219.608 664.694 219.562 664.354 219.562C663.993 219.562 663.688 219.632 663.438 219.771C663.188 219.91 662.986 220.104 662.833 220.354C662.688 220.597 662.58 220.885 662.51 221.219C662.448 221.552 662.417 221.917 662.417 222.312ZM678.51 217.062H681.698V227.896C681.698 228.937 681.458 229.819 680.979 230.542C680.5 231.271 679.83 231.823 678.969 232.198C678.115 232.58 677.115 232.771 675.969 232.771C675.462 232.771 674.944 232.705 674.417 232.573C673.889 232.448 673.396 232.26 672.938 232.01C672.479 231.76 672.094 231.451 671.781 231.083L673.25 229.021C673.535 229.34 673.892 229.611 674.323 229.833C674.753 230.062 675.26 230.177 675.844 230.177C676.351 230.177 676.774 230.087 677.115 229.906C677.462 229.726 677.726 229.462 677.906 229.115C678.087 228.774 678.177 228.361 678.177 227.875V219.729L678.51 217.062ZM671.021 222.833V222.615C671.021 221.76 671.125 220.983 671.333 220.281C671.549 219.573 671.854 218.965 672.25 218.458C672.653 217.944 673.139 217.549 673.708 217.271C674.278 216.993 674.92 216.854 675.635 216.854C676.406 216.854 677.038 217.003 677.531 217.302C678.031 217.594 678.431 218.003 678.729 218.531C679.035 219.059 679.271 219.677 679.438 220.385C679.611 221.087 679.757 221.844 679.875 222.656V222.917C679.757 223.681 679.594 224.403 679.385 225.083C679.184 225.757 678.92 226.354 678.594 226.875C678.267 227.396 677.858 227.806 677.365 228.104C676.878 228.396 676.295 228.542 675.615 228.542C674.906 228.542 674.267 228.399 673.698 228.115C673.135 227.83 672.653 227.431 672.25 226.917C671.854 226.403 671.549 225.799 671.333 225.104C671.125 224.41 671.021 223.653 671.021 222.833ZM674.531 222.615V222.833C674.531 223.257 674.569 223.649 674.646 224.01C674.729 224.372 674.854 224.691 675.021 224.969C675.188 225.24 675.392 225.451 675.635 225.604C675.885 225.757 676.177 225.833 676.51 225.833C677.017 225.833 677.427 225.726 677.74 225.51C678.052 225.295 678.278 224.99 678.417 224.594C678.556 224.198 678.615 223.733 678.594 223.198V222.375C678.608 221.917 678.576 221.514 678.5 221.167C678.424 220.812 678.302 220.517 678.135 220.281C677.976 220.045 677.76 219.868 677.49 219.75C677.226 219.625 676.906 219.562 676.531 219.562C676.205 219.562 675.917 219.639 675.667 219.792C675.417 219.944 675.208 220.16 675.042 220.437C674.875 220.708 674.747 221.031 674.656 221.406C674.573 221.774 674.531 222.177 674.531 222.615ZM683.281 222.812V222.594C683.281 221.767 683.399 221.007 683.635 220.312C683.872 219.611 684.219 219.003 684.677 218.49C685.135 217.976 685.701 217.576 686.375 217.292C687.049 217 687.826 216.854 688.708 216.854C689.597 216.854 690.378 217 691.052 217.292C691.733 217.576 692.302 217.976 692.76 218.49C693.219 219.003 693.566 219.611 693.802 220.312C694.038 221.007 694.156 221.767 694.156 222.594V222.812C694.156 223.632 694.038 224.392 693.802 225.094C693.566 225.788 693.219 226.396 692.76 226.917C692.302 227.431 691.736 227.83 691.063 228.115C690.389 228.399 689.611 228.542 688.729 228.542C687.847 228.542 687.066 228.399 686.385 228.115C685.705 227.83 685.135 227.431 684.677 226.917C684.219 226.396 683.872 225.788 683.635 225.094C683.399 224.392 683.281 223.632 683.281 222.812ZM686.792 222.594V222.812C686.792 223.236 686.823 223.632 686.885 224C686.948 224.368 687.052 224.691 687.198 224.969C687.344 225.24 687.542 225.451 687.792 225.604C688.042 225.757 688.354 225.833 688.729 225.833C689.097 225.833 689.403 225.757 689.646 225.604C689.896 225.451 690.094 225.24 690.24 224.969C690.385 224.691 690.49 224.368 690.552 224C690.615 223.632 690.646 223.236 690.646 222.812V222.594C690.646 222.184 690.615 221.799 690.552 221.437C690.49 221.069 690.385 220.747 690.24 220.469C690.094 220.184 689.896 219.962 689.646 219.802C689.396 219.642 689.083 219.562 688.708 219.562C688.34 219.562 688.031 219.642 687.781 219.802C687.538 219.962 687.344 220.184 687.198 220.469C687.052 220.747 686.948 221.069 686.885 221.437C686.823 221.799 686.792 222.184 686.792 222.594ZM700.813 228.333H697.448L697.469 225.521H700.813C701.507 225.521 702.094 225.354 702.573 225.021C703.059 224.687 703.427 224.191 703.677 223.531C703.934 222.865 704.063 222.045 704.063 221.073V220.417C704.063 219.687 703.99 219.049 703.844 218.5C703.705 217.944 703.497 217.483 703.219 217.115C702.941 216.74 702.594 216.458 702.177 216.271C701.767 216.083 701.295 215.99 700.76 215.99H697.385V213.167H700.76C701.788 213.167 702.729 213.344 703.583 213.698C704.444 214.045 705.188 214.545 705.813 215.198C706.444 215.844 706.931 216.611 707.271 217.5C707.618 218.382 707.792 219.361 707.792 220.437V221.073C707.792 222.142 707.618 223.122 707.271 224.01C706.931 224.899 706.448 225.667 705.823 226.312C705.198 226.958 704.458 227.458 703.604 227.812C702.757 228.16 701.826 228.333 700.813 228.333ZM699.542 213.167V228.333H695.885V213.167H699.542ZM715.885 221.885H711.979L711.958 219.49H715.125C715.694 219.49 716.149 219.427 716.49 219.302C716.83 219.17 717.076 218.979 717.229 218.729C717.389 218.479 717.469 218.167 717.469 217.792C717.469 217.361 717.389 217.014 717.229 216.75C717.069 216.486 716.816 216.295 716.469 216.177C716.128 216.052 715.688 215.99 715.146 215.99H713.354V228.333H709.698V213.167H715.146C716.083 213.167 716.92 213.253 717.656 213.427C718.392 213.594 719.017 213.851 719.531 214.198C720.052 214.545 720.448 214.983 720.719 215.51C720.99 216.031 721.125 216.646 721.125 217.354C721.125 217.972 720.993 218.552 720.729 219.094C720.465 219.635 720.024 220.076 719.406 220.417C718.795 220.75 717.958 220.924 716.896 220.937L715.885 221.885ZM715.74 228.333H711.094L712.344 225.521H715.74C716.24 225.521 716.639 225.444 716.938 225.292C717.243 225.132 717.462 224.924 717.594 224.667C717.733 224.403 717.802 224.111 717.802 223.792C717.802 223.403 717.736 223.066 717.604 222.781C717.479 222.497 717.278 222.278 717 222.125C716.722 221.965 716.351 221.885 715.885 221.885H712.813L712.833 219.49H716.51L717.365 220.448C718.378 220.406 719.181 220.549 719.771 220.875C720.368 221.201 720.795 221.632 721.052 222.167C721.309 222.701 721.438 223.26 721.438 223.844C721.438 224.837 721.222 225.667 720.792 226.333C720.368 227 719.733 227.5 718.885 227.833C718.038 228.167 716.99 228.333 715.74 228.333Z" fill="white"/>
</svg>
