<svg width="25" height="25" viewBox="0 0 36 36" fill="none" xmlns="http://www.w3.org/2000/svg">
<path d="M7.90492 2.85718C6.56621 2.85718 5.28233 3.38898 4.33572 4.3356C3.38911 5.28221 2.85731 6.56609 2.85731 7.9048V11.6905C2.85731 12.0252 2.72435 12.3462 2.4877 12.5828C2.25105 12.8195 1.93008 12.9524 1.5954 12.9524C1.26072 12.9524 0.939753 12.8195 0.7031 12.5828C0.466447 12.3462 0.333496 12.0252 0.333496 11.6905V7.9048C0.333496 5.89674 1.1312 3.97091 2.55112 2.55099C3.97103 1.13108 5.89686 0.333374 7.90492 0.333374H11.6906C12.0253 0.333374 12.3463 0.466325 12.5829 0.702978C12.8196 0.939631 12.9525 1.2606 12.9525 1.59528C12.9525 1.92996 12.8196 2.25093 12.5829 2.48758C12.3463 2.72423 12.0253 2.85718 11.6906 2.85718H7.90492ZM12.9525 7.9048C11.6138 7.9048 10.3299 8.4366 9.38334 9.38322C8.43672 10.3298 7.90492 11.6137 7.90492 12.9524V23.0477C7.90492 24.3864 8.43672 25.6703 9.38334 26.6169C10.3299 27.5635 11.6138 28.0953 12.9525 28.0953H23.0478C24.3865 28.0953 25.6704 27.5635 26.617 26.6169C27.5636 25.6703 28.0954 24.3864 28.0954 23.0477V12.9524C28.0954 11.6137 27.5636 10.3298 26.617 9.38322C25.6704 8.4366 24.3865 7.9048 23.0478 7.9048H12.9525ZM25.5716 12.9524H10.4287C10.4287 12.2831 10.6946 11.6411 11.1679 11.1678C11.6412 10.6945 12.2832 10.4286 12.9525 10.4286H23.0478C23.7171 10.4286 24.3591 10.6945 24.8324 11.1678C25.3057 11.6411 25.5716 12.2831 25.5716 12.9524ZM10.4287 15.4762H25.5716V23.0477C25.5716 23.717 25.3057 24.359 24.8324 24.8323C24.3591 25.3056 23.7171 25.5715 23.0478 25.5715H12.9525C12.2832 25.5715 11.6412 25.3056 11.1679 24.8323C10.6946 24.359 10.4287 23.717 10.4287 23.0477V15.4762ZM24.3097 0.333374C23.975 0.333374 23.654 0.466325 23.4174 0.702978C23.1807 0.939631 23.0478 1.2606 23.0478 1.59528C23.0478 1.92996 23.1807 2.25093 23.4174 2.48758C23.654 2.72423 23.975 2.85718 24.3097 2.85718H28.0954C29.4341 2.85718 30.718 3.38898 31.6646 4.3356C32.6112 5.28221 33.143 6.56609 33.143 7.9048V11.6905C33.143 12.0252 33.276 12.3462 33.5126 12.5828C33.7493 12.8195 34.0702 12.9524 34.4049 12.9524C34.7396 12.9524 35.0606 12.8195 35.2972 12.5828C35.5339 12.3462 35.6668 12.0252 35.6668 11.6905V7.9048C35.6668 5.89674 34.8691 3.97091 33.4492 2.55099C32.0293 1.13108 30.1035 0.333374 28.0954 0.333374H24.3097ZM1.5954 23.0477C1.93008 23.0477 2.25105 23.1806 2.4877 23.4173C2.72435 23.6539 2.85731 23.9749 2.85731 24.3096V28.0953C2.85731 29.434 3.38911 30.7179 4.33572 31.6645C5.28233 32.6111 6.56621 33.1429 7.90492 33.1429H11.6906C12.0253 33.1429 12.3463 33.2758 12.5829 33.5125C12.8196 33.7492 12.9525 34.0701 12.9525 34.4048C12.9525 34.7395 12.8196 35.0605 12.5829 35.2971C12.3463 35.5338 12.0253 35.6667 11.6906 35.6667H7.90492C5.89686 35.6667 3.97103 34.869 2.55112 33.4491C1.1312 32.0292 0.333496 30.1033 0.333496 28.0953V24.3096C0.333496 23.9749 0.466447 23.6539 0.7031 23.4173C0.939753 23.1806 1.26072 23.0477 1.5954 23.0477ZM35.6668 24.3096C35.6668 23.9749 35.5339 23.6539 35.2972 23.4173C35.0606 23.1806 34.7396 23.0477 34.4049 23.0477C34.0702 23.0477 33.7493 23.1806 33.5126 23.4173C33.276 23.6539 33.143 23.9749 33.143 24.3096V28.0953C33.143 29.434 32.6112 30.7179 31.6646 31.6645C30.718 32.6111 29.4341 33.1429 28.0954 33.1429H24.3097C23.975 33.1429 23.654 33.2758 23.4174 33.5125C23.1807 33.7492 23.0478 34.0701 23.0478 34.4048C23.0478 34.7395 23.1807 35.0605 23.4174 35.2971C23.654 35.5338 23.975 35.6667 24.3097 35.6667H28.0954C30.1035 35.6667 32.0293 34.869 33.4492 33.4491C34.8691 32.0292 35.6668 30.1033 35.6668 28.0953V24.3096Z" fill="white"/>
</svg>
